%TF.GenerationSoftware,KiCad,Pcbnew,7.0.10*%
%TF.CreationDate,2024-01-29T00:00:28+02:00*%
%TF.ProjectId,RamenTimer_ki7,52616d65-6e54-4696-9d65-725f6b69372e,rev?*%
%TF.SameCoordinates,Original*%
%TF.FileFunction,Legend,Bot*%
%TF.FilePolarity,Positive*%
%FSLAX46Y46*%
G04 Gerber Fmt 4.6, Leading zero omitted, Abs format (unit mm)*
G04 Created by KiCad (PCBNEW 7.0.10) date 2024-01-29 00:00:28*
%MOMM*%
%LPD*%
G01*
G04 APERTURE LIST*
%ADD10C,0.200000*%
%ADD11C,0.127000*%
%ADD12C,0.120000*%
G04 APERTURE END LIST*
%TO.C,G\u002A\u002A\u002A*%
G36*
X168331763Y-108779997D02*
G01*
X168210580Y-108992883D01*
X168018246Y-109315399D01*
X167777915Y-109708208D01*
X167126631Y-110701901D01*
X165927658Y-112265009D01*
X164627958Y-113648629D01*
X163231629Y-114850101D01*
X161742770Y-115866768D01*
X160165480Y-116695971D01*
X158503856Y-117335052D01*
X156761998Y-117781353D01*
X154944003Y-118032216D01*
X154740037Y-118048860D01*
X154306189Y-118083589D01*
X153960907Y-118110328D01*
X153764938Y-118124332D01*
X153759907Y-118124624D01*
X153409338Y-118122795D01*
X152905542Y-118092348D01*
X152302173Y-118039083D01*
X151652880Y-117968796D01*
X151011318Y-117887287D01*
X150431137Y-117800353D01*
X149965990Y-117713792D01*
X149251170Y-117544247D01*
X147962598Y-117150471D01*
X146746214Y-116648930D01*
X145561011Y-116019134D01*
X144365983Y-115240591D01*
X143120124Y-114292809D01*
X143034970Y-114223389D01*
X142477444Y-113744903D01*
X141904064Y-113216346D01*
X141336575Y-112661402D01*
X140796725Y-112103752D01*
X140306263Y-111567077D01*
X139886935Y-111075060D01*
X139560490Y-110651383D01*
X139348674Y-110319727D01*
X139273236Y-110103775D01*
X139291480Y-110093907D01*
X139447018Y-110137442D01*
X139727108Y-110257177D01*
X140090041Y-110436143D01*
X140142323Y-110463250D01*
X142269532Y-111456374D01*
X144414940Y-112242936D01*
X146591312Y-112827000D01*
X148811411Y-113212627D01*
X148847650Y-113217235D01*
X149871652Y-113323003D01*
X150980113Y-113396386D01*
X152124300Y-113437031D01*
X153255477Y-113444588D01*
X154324910Y-113418702D01*
X155283866Y-113359023D01*
X156083610Y-113265197D01*
X156457701Y-113207482D01*
X156960435Y-113133717D01*
X157384223Y-113075757D01*
X157664523Y-113042687D01*
X157883303Y-113011686D01*
X158362573Y-112912369D01*
X158982436Y-112758898D01*
X159707484Y-112560686D01*
X160502309Y-112327149D01*
X161331503Y-112067700D01*
X161750446Y-111923722D01*
X162509985Y-111633003D01*
X163350452Y-111283454D01*
X164215683Y-110900214D01*
X165049510Y-110508424D01*
X165795769Y-110133224D01*
X166398293Y-109799756D01*
X166398644Y-109799547D01*
X167070261Y-109404127D01*
X167615610Y-109090757D01*
X168021489Y-108866723D01*
X168274697Y-108739312D01*
X168362033Y-108715811D01*
X168331763Y-108779997D01*
G37*
G36*
X137824946Y-108684605D02*
G01*
X137826695Y-108685329D01*
X137942639Y-108795691D01*
X138143930Y-109045878D01*
X138402734Y-109399414D01*
X138691214Y-109819821D01*
X138792671Y-109971310D01*
X139300044Y-110697787D01*
X139811095Y-111369801D01*
X140353312Y-112017512D01*
X140954184Y-112671083D01*
X141641199Y-113360674D01*
X142441845Y-114116447D01*
X143383610Y-114968563D01*
X143539630Y-115110239D01*
X143665588Y-115254387D01*
X143662189Y-115350905D01*
X143548006Y-115454721D01*
X143414100Y-115540369D01*
X143055865Y-115711813D01*
X142602933Y-115886530D01*
X142126385Y-116038181D01*
X141697303Y-116140431D01*
X141535877Y-116164110D01*
X140839870Y-116177001D01*
X140069976Y-116077406D01*
X139299743Y-115878341D01*
X138602725Y-115592821D01*
X138175220Y-115318508D01*
X137685341Y-114903092D01*
X137223252Y-114420843D01*
X136853964Y-113933446D01*
X136435266Y-113141169D01*
X136172733Y-112260675D01*
X136083486Y-111291120D01*
X136094685Y-110770430D01*
X136175167Y-110111878D01*
X136339599Y-109596303D01*
X136596224Y-109189932D01*
X136601611Y-109183597D01*
X136872382Y-108955084D01*
X137217553Y-108774763D01*
X137560587Y-108674111D01*
X137824946Y-108684605D01*
G37*
G36*
X169994664Y-108130910D02*
G01*
X170563442Y-108242163D01*
X171017072Y-108525599D01*
X171342353Y-108969444D01*
X171526082Y-109561925D01*
X171609380Y-110384706D01*
X171556486Y-111437091D01*
X171323336Y-112412301D01*
X170919777Y-113294453D01*
X170355656Y-114067662D01*
X169640821Y-114716044D01*
X168785119Y-115223714D01*
X167798398Y-115574790D01*
X167259975Y-115662556D01*
X166490207Y-115670419D01*
X165692515Y-115569712D01*
X164948152Y-115366378D01*
X164537280Y-115213080D01*
X164224818Y-115070420D01*
X164062787Y-114927430D01*
X164050314Y-114753784D01*
X164186527Y-114519151D01*
X164470552Y-114193203D01*
X164901518Y-113745611D01*
X165292575Y-113339016D01*
X165882233Y-112700328D01*
X166399181Y-112097108D01*
X166887495Y-111474596D01*
X167391255Y-110778032D01*
X167954536Y-109952655D01*
X167998258Y-109887468D01*
X168432228Y-109261691D01*
X168790033Y-108797507D01*
X169094692Y-108473566D01*
X169369223Y-108268516D01*
X169636647Y-108161007D01*
X169919983Y-108129688D01*
X169994664Y-108130910D01*
G37*
G36*
X169946971Y-105816540D02*
G01*
X169868164Y-106024909D01*
X169715636Y-106352547D01*
X169503110Y-106767516D01*
X168919753Y-107865809D01*
X167718694Y-108683522D01*
X166988563Y-109158091D01*
X165260335Y-110130750D01*
X163400710Y-110991315D01*
X161449969Y-111725520D01*
X159448397Y-112319097D01*
X157436278Y-112757780D01*
X155453896Y-113027301D01*
X155434037Y-113029148D01*
X155065702Y-113069680D01*
X154791330Y-113111151D01*
X154669012Y-113144861D01*
X154591132Y-113160716D01*
X154328836Y-113172818D01*
X153916048Y-113176010D01*
X153386788Y-113171238D01*
X152775075Y-113159451D01*
X152114929Y-113141599D01*
X151440370Y-113118629D01*
X150785416Y-113091491D01*
X150184089Y-113061133D01*
X149670406Y-113028503D01*
X149278388Y-112994550D01*
X148701698Y-112925065D01*
X146605084Y-112548193D01*
X144494486Y-111979509D01*
X142401037Y-111228400D01*
X140355871Y-110304253D01*
X140209503Y-110230473D01*
X139579247Y-109894974D01*
X139095487Y-109590496D01*
X138716892Y-109278311D01*
X138402132Y-108919693D01*
X138109874Y-108475913D01*
X137798788Y-107908244D01*
X137368721Y-107081602D01*
X139137784Y-107968958D01*
X139831730Y-108310053D01*
X141751638Y-109173529D01*
X143615143Y-109884173D01*
X145469359Y-110457145D01*
X147361401Y-110907600D01*
X149338382Y-111250697D01*
X149615721Y-111286661D01*
X150448304Y-111360987D01*
X151410694Y-111409512D01*
X152446401Y-111432142D01*
X153498935Y-111428786D01*
X154511805Y-111399352D01*
X155428521Y-111343746D01*
X156192593Y-111261878D01*
X157281002Y-111085685D01*
X159678677Y-110545501D01*
X162056148Y-109801505D01*
X164400850Y-108858493D01*
X166700222Y-107721260D01*
X168941701Y-106394604D01*
X169142540Y-106265629D01*
X169503822Y-106034388D01*
X169784252Y-105855901D01*
X169935661Y-105760877D01*
X169938335Y-105759377D01*
X169946971Y-105816540D01*
G37*
G36*
X155545882Y-110462242D02*
G01*
X155577002Y-110477464D01*
X155777842Y-110628775D01*
X155900503Y-110804095D01*
X155894808Y-110935385D01*
X155831347Y-110957925D01*
X155607976Y-111007755D01*
X155286311Y-111066070D01*
X154990779Y-111111967D01*
X154501762Y-111163396D01*
X154200584Y-111147709D01*
X154077794Y-111060870D01*
X154123936Y-110898841D01*
X154329558Y-110657588D01*
X154650302Y-110427289D01*
X155076185Y-110342007D01*
X155545882Y-110462242D01*
G37*
G36*
X168060421Y-86707031D02*
G01*
X168239011Y-87202703D01*
X168360497Y-87524730D01*
X168460375Y-87789480D01*
X168714093Y-88437980D01*
X168932137Y-88995960D01*
X169030701Y-89248187D01*
X169373664Y-90150568D01*
X169715984Y-91072493D01*
X170031119Y-91942481D01*
X170292527Y-92689045D01*
X170305078Y-92725785D01*
X170529093Y-93374371D01*
X170573928Y-93501632D01*
X170744438Y-93985608D01*
X170936498Y-94518880D01*
X171090653Y-94933573D01*
X171192287Y-95189070D01*
X171252517Y-95337660D01*
X171330015Y-95617400D01*
X171303189Y-95751584D01*
X171211779Y-95771946D01*
X170935848Y-95803730D01*
X170514947Y-95839424D01*
X169985721Y-95875993D01*
X169384813Y-95910405D01*
X168954776Y-95933715D01*
X168334333Y-95970931D01*
X167781194Y-96008175D01*
X167343112Y-96042165D01*
X167067838Y-96069621D01*
X166967248Y-96081623D01*
X166648215Y-96086920D01*
X166421237Y-95997848D01*
X166232404Y-95779549D01*
X166027808Y-95397166D01*
X165736735Y-94920712D01*
X165276336Y-94411634D01*
X164728863Y-93985762D01*
X164132546Y-93663116D01*
X163525615Y-93463714D01*
X162946302Y-93407576D01*
X162432837Y-93514720D01*
X162295833Y-93580365D01*
X161914546Y-93901124D01*
X161692394Y-94356810D01*
X161633205Y-94940599D01*
X161629007Y-95201916D01*
X161536445Y-95548704D01*
X161304869Y-95801901D01*
X160898533Y-96013723D01*
X160801142Y-96039227D01*
X160500608Y-96074849D01*
X160070381Y-96099480D01*
X159552999Y-96113405D01*
X158990998Y-96116904D01*
X158426917Y-96110259D01*
X157903293Y-96093753D01*
X157462664Y-96067666D01*
X157147567Y-96032283D01*
X157000539Y-95987883D01*
X156985852Y-95968001D01*
X156935649Y-95784950D01*
X156900860Y-95429205D01*
X156880621Y-94888199D01*
X156874066Y-94149362D01*
X156874602Y-93691172D01*
X156879397Y-93175462D01*
X156892907Y-92810625D01*
X156919547Y-92561091D01*
X156963733Y-92391291D01*
X157029879Y-92265654D01*
X157122400Y-92148609D01*
X157370733Y-91859905D01*
X157501324Y-92404272D01*
X157593693Y-92700887D01*
X157781707Y-93106717D01*
X158008189Y-93456969D01*
X158240091Y-93702878D01*
X158444364Y-93795684D01*
X158450511Y-93795637D01*
X158649317Y-93717913D01*
X158704462Y-93545086D01*
X158590034Y-93355465D01*
X158486369Y-93242586D01*
X158293661Y-92927941D01*
X158250805Y-92833182D01*
X165024091Y-92833182D01*
X165058359Y-93069060D01*
X165251987Y-93380703D01*
X165613789Y-93787476D01*
X165835080Y-94000101D01*
X166236313Y-94290103D01*
X166679632Y-94472143D01*
X167220553Y-94596204D01*
X167927049Y-94617481D01*
X168596119Y-94449498D01*
X169272143Y-94085638D01*
X169508886Y-93914396D01*
X169730805Y-93686252D01*
X169765096Y-93501632D01*
X169618972Y-93345142D01*
X169511552Y-93311548D01*
X169311599Y-93368521D01*
X169011009Y-93560747D01*
X168750497Y-93729233D01*
X168107443Y-93990154D01*
X167459808Y-94053026D01*
X166835285Y-93921839D01*
X166261563Y-93600583D01*
X165766334Y-93093247D01*
X165525583Y-92786372D01*
X165357070Y-92626446D01*
X165230717Y-92598937D01*
X165110329Y-92681105D01*
X165024091Y-92833182D01*
X158250805Y-92833182D01*
X158114066Y-92530837D01*
X157981289Y-92130316D01*
X157929038Y-91805422D01*
X157936217Y-91592173D01*
X158050567Y-91034609D01*
X158321974Y-90519173D01*
X158773451Y-89996567D01*
X158844143Y-89925503D01*
X159101807Y-89642132D01*
X159272690Y-89414028D01*
X159322839Y-89285156D01*
X159288827Y-89219837D01*
X159127759Y-89157173D01*
X158886249Y-89238222D01*
X158592468Y-89441102D01*
X158274587Y-89743929D01*
X157960777Y-90124822D01*
X157679209Y-90561897D01*
X157276514Y-91182340D01*
X156695835Y-91797665D01*
X156023584Y-92228537D01*
X155244821Y-92483966D01*
X154344606Y-92572964D01*
X154059200Y-92571387D01*
X153672299Y-92539446D01*
X153354351Y-92454461D01*
X153015854Y-92297906D01*
X152514689Y-92006312D01*
X152090225Y-91663749D01*
X151756328Y-91246240D01*
X151451706Y-90690813D01*
X151349357Y-90492878D01*
X151030370Y-90006323D01*
X150676491Y-89616527D01*
X150322377Y-89357621D01*
X150002681Y-89263734D01*
X149942653Y-89266940D01*
X149832092Y-89328031D01*
X149864011Y-89478151D01*
X150045165Y-89732277D01*
X150382311Y-90105386D01*
X150455007Y-90183343D01*
X150901093Y-90784812D01*
X151137204Y-91384055D01*
X151163826Y-91988415D01*
X150981447Y-92605233D01*
X150669684Y-93112977D01*
X150590554Y-93241849D01*
X150408522Y-93552464D01*
X150375292Y-93776759D01*
X150469815Y-93879972D01*
X150665843Y-93834126D01*
X150937128Y-93611244D01*
X150937711Y-93610621D01*
X151288546Y-93190154D01*
X151496690Y-92812858D01*
X151599088Y-92411790D01*
X151657054Y-92003787D01*
X152242378Y-92401763D01*
X152541569Y-92588404D01*
X152951485Y-92805417D01*
X153296320Y-92948411D01*
X153440541Y-92995346D01*
X153693731Y-93084653D01*
X153817635Y-93138883D01*
X153822520Y-93159390D01*
X153835942Y-93348720D01*
X153850718Y-93717411D01*
X153866288Y-94243050D01*
X153882096Y-94903223D01*
X153897583Y-95675517D01*
X153912192Y-96537519D01*
X153925364Y-97466815D01*
X153980396Y-101752946D01*
X154004410Y-97458132D01*
X154009158Y-96760280D01*
X154020645Y-95683988D01*
X154036067Y-94791126D01*
X154055261Y-94087161D01*
X154078060Y-93577560D01*
X154104300Y-93267791D01*
X154133817Y-93163319D01*
X154134530Y-93163342D01*
X154179188Y-93267805D01*
X154216032Y-93559543D01*
X154243077Y-94015468D01*
X154258339Y-94612489D01*
X154277466Y-96061659D01*
X154337384Y-94673696D01*
X154363777Y-94157936D01*
X154405622Y-93637596D01*
X154456473Y-93307630D01*
X154518319Y-93156359D01*
X154593151Y-93172102D01*
X154601000Y-93258294D01*
X154596182Y-93517411D01*
X154577654Y-93904598D01*
X154547120Y-94375352D01*
X154534792Y-94603762D01*
X154519107Y-95085756D01*
X154505593Y-95731030D01*
X154494554Y-96511838D01*
X154486290Y-97400435D01*
X154481105Y-98369078D01*
X154479299Y-99390021D01*
X154481175Y-100435518D01*
X154499017Y-105336348D01*
X154555394Y-101173278D01*
X154563649Y-100599928D01*
X154576228Y-99855342D01*
X154588654Y-99263479D01*
X154600579Y-98834014D01*
X154611654Y-98576623D01*
X154621529Y-98500982D01*
X154629854Y-98616766D01*
X154636280Y-98933651D01*
X154644754Y-99439169D01*
X154664674Y-100074712D01*
X154693216Y-100516125D01*
X154731132Y-100773542D01*
X154779175Y-100857095D01*
X154781173Y-100856916D01*
X154813040Y-100787722D01*
X154835884Y-100584744D01*
X154849843Y-100235175D01*
X154855056Y-99726208D01*
X154851661Y-99045034D01*
X154839796Y-98178847D01*
X154839635Y-98170374D01*
X155306721Y-98170374D01*
X155320207Y-98722863D01*
X155329934Y-98882802D01*
X155340384Y-98897684D01*
X155348682Y-98729653D01*
X155354154Y-98394011D01*
X155356128Y-97906058D01*
X155354781Y-97494324D01*
X155349883Y-97130427D01*
X155342040Y-96931416D01*
X155331923Y-96912591D01*
X155320207Y-97089253D01*
X155307767Y-97554856D01*
X155306721Y-98170374D01*
X154839635Y-98170374D01*
X154819601Y-97114838D01*
X154805756Y-96418486D01*
X154804210Y-96325145D01*
X155609336Y-96325145D01*
X155609410Y-96540714D01*
X155611998Y-97456448D01*
X155616217Y-97906058D01*
X155618813Y-98182778D01*
X155630568Y-98737390D01*
X155647977Y-99137969D01*
X155671754Y-99402201D01*
X155702614Y-99547772D01*
X155741270Y-99592365D01*
X155746603Y-99592847D01*
X155789304Y-99648133D01*
X155819783Y-99809807D01*
X155838884Y-100098720D01*
X155847454Y-100535721D01*
X155846339Y-101141660D01*
X155836383Y-101937386D01*
X155829023Y-102458227D01*
X155821906Y-103246970D01*
X155822013Y-103861957D01*
X155828971Y-104297905D01*
X155842411Y-104549530D01*
X155861961Y-104611550D01*
X155887251Y-104478681D01*
X155917910Y-104145640D01*
X155953567Y-103607146D01*
X155965965Y-103368505D01*
X155984102Y-102882795D01*
X155997846Y-102331733D01*
X156007341Y-101740422D01*
X156012733Y-101133963D01*
X156014165Y-100537458D01*
X156011784Y-99976010D01*
X156005733Y-99474720D01*
X155996159Y-99058690D01*
X155983205Y-98753023D01*
X155967017Y-98582819D01*
X155947740Y-98573181D01*
X155925519Y-98749211D01*
X155915983Y-98830757D01*
X155898866Y-98826276D01*
X155882755Y-98634498D01*
X155868188Y-98270641D01*
X155855700Y-97749926D01*
X155845829Y-97087572D01*
X155839112Y-96298796D01*
X155832669Y-95529104D01*
X155819191Y-94660364D01*
X155800357Y-93971045D01*
X155776469Y-93468977D01*
X155747827Y-93161993D01*
X155714730Y-93057925D01*
X155689820Y-93116029D01*
X155661420Y-93373037D01*
X155638956Y-93829121D01*
X155622644Y-94477612D01*
X155612699Y-95311843D01*
X155609336Y-96325145D01*
X154804210Y-96325145D01*
X154790612Y-95504107D01*
X154783284Y-94771362D01*
X154784010Y-94202625D01*
X154793028Y-93780271D01*
X154810576Y-93486674D01*
X154836890Y-93304210D01*
X154872210Y-93215253D01*
X154964299Y-93118384D01*
X155092885Y-93074571D01*
X155165151Y-93222190D01*
X155187759Y-93568705D01*
X155188843Y-93671516D01*
X155202093Y-94068652D01*
X155227237Y-94562757D01*
X155260257Y-95070572D01*
X155265282Y-95138340D01*
X155301688Y-95557481D01*
X155334872Y-95783361D01*
X155368302Y-95831428D01*
X155405447Y-95717126D01*
X155424882Y-95549299D01*
X155436754Y-95184973D01*
X155432236Y-94716053D01*
X155411101Y-94202973D01*
X155390134Y-93826928D01*
X155374672Y-93441413D01*
X155381276Y-93199371D01*
X155415493Y-93061419D01*
X155482870Y-92988171D01*
X155588955Y-92940244D01*
X155633067Y-92923280D01*
X155763530Y-92876112D01*
X155867589Y-92860045D01*
X155948765Y-92895037D01*
X156010574Y-93001046D01*
X156056536Y-93198030D01*
X156090170Y-93505946D01*
X156114994Y-93944754D01*
X156134527Y-94534409D01*
X156152288Y-95294872D01*
X156171794Y-96246099D01*
X156173159Y-96313208D01*
X156191283Y-97292341D01*
X156207588Y-98330110D01*
X156221418Y-99372641D01*
X156232120Y-100366061D01*
X156233452Y-100537458D01*
X156239040Y-101256499D01*
X156241524Y-101990083D01*
X156241538Y-102036270D01*
X156246254Y-102884919D01*
X156259712Y-103531226D01*
X156282298Y-103983092D01*
X156314398Y-104248417D01*
X156356401Y-104335103D01*
X156368463Y-104321781D01*
X156392962Y-104185284D01*
X156412635Y-103894663D01*
X156427592Y-103441830D01*
X156437942Y-102818693D01*
X156443794Y-102017165D01*
X156445256Y-101029156D01*
X156442437Y-99846576D01*
X156435447Y-98461336D01*
X156434228Y-98259719D01*
X156427159Y-97026802D01*
X156422281Y-95985923D01*
X156420006Y-95120773D01*
X156420746Y-94415046D01*
X156424913Y-93852432D01*
X156432917Y-93416625D01*
X156445171Y-93091316D01*
X156462086Y-92860197D01*
X156484074Y-92706960D01*
X156511546Y-92615298D01*
X156544913Y-92568902D01*
X156584588Y-92551465D01*
X156680057Y-92542464D01*
X156718586Y-92608341D01*
X156652007Y-92812992D01*
X156641676Y-92848309D01*
X156616607Y-93039262D01*
X156597590Y-93372497D01*
X156584554Y-93857791D01*
X156577424Y-94504920D01*
X156576129Y-95323659D01*
X156580595Y-96323785D01*
X156590748Y-97515074D01*
X156606517Y-98907303D01*
X156614071Y-99553317D01*
X156624401Y-100610709D01*
X156631525Y-101596205D01*
X156635441Y-102489967D01*
X156636148Y-103272156D01*
X156633646Y-103922935D01*
X156627932Y-104422464D01*
X156619007Y-104750906D01*
X156606868Y-104888423D01*
X156522903Y-104997621D01*
X156309471Y-105083368D01*
X156203313Y-105090487D01*
X156177097Y-105113401D01*
X156347095Y-105166735D01*
X156541198Y-105267218D01*
X156650499Y-105452318D01*
X156606066Y-105641147D01*
X156401805Y-105766837D01*
X156126648Y-105835897D01*
X156390328Y-105972696D01*
X156615444Y-106048779D01*
X156865471Y-106054196D01*
X156955864Y-106045417D01*
X157238398Y-106078741D01*
X157573041Y-106167938D01*
X157749609Y-106224793D01*
X157994936Y-106289673D01*
X158107741Y-106298386D01*
X158075024Y-106247810D01*
X157909770Y-106149840D01*
X157672790Y-106040911D01*
X157433667Y-105952483D01*
X157261986Y-105916016D01*
X157064001Y-105896246D01*
X156840384Y-105759498D01*
X156768672Y-105483163D01*
X156804606Y-105270056D01*
X156900415Y-105176643D01*
X156967553Y-105165110D01*
X156915114Y-105097597D01*
X156898619Y-105068890D01*
X156864707Y-104877589D01*
X156834337Y-104505499D01*
X156807252Y-103946623D01*
X156801860Y-103778163D01*
X157088615Y-103778163D01*
X157134406Y-103916558D01*
X157296919Y-104178867D01*
X157385360Y-104305653D01*
X157578733Y-104559371D01*
X157684850Y-104648032D01*
X157717220Y-104584680D01*
X157712835Y-104553654D01*
X157622249Y-104358725D01*
X157457352Y-104109983D01*
X157274896Y-103886600D01*
X157131632Y-103767747D01*
X157088615Y-103778163D01*
X156801860Y-103778163D01*
X156783194Y-103194963D01*
X156776770Y-102908142D01*
X157353349Y-102908142D01*
X157454539Y-103039143D01*
X157720741Y-103271318D01*
X157906202Y-103443843D01*
X158213105Y-103803851D01*
X158468520Y-104184775D01*
X158675176Y-104533160D01*
X158711825Y-104584680D01*
X158820557Y-104737530D01*
X158881209Y-104764810D01*
X158860770Y-104661869D01*
X159192738Y-104661869D01*
X159192976Y-104684324D01*
X159204334Y-104732043D01*
X159250846Y-104713574D01*
X159357163Y-104604736D01*
X159547933Y-104381346D01*
X159847807Y-104019221D01*
X159875942Y-103984988D01*
X160178066Y-103591371D01*
X160329701Y-103333107D01*
X160329316Y-103291425D01*
X165260207Y-103291425D01*
X165275973Y-103333107D01*
X165286666Y-103361376D01*
X165442137Y-103481369D01*
X165572242Y-103557499D01*
X165610844Y-103560815D01*
X165492551Y-103430956D01*
X165360567Y-103318668D01*
X165260207Y-103291425D01*
X160329316Y-103291425D01*
X160328601Y-103213957D01*
X160235223Y-103205048D01*
X160095109Y-103322220D01*
X160005147Y-103457613D01*
X159816556Y-103724229D01*
X159587967Y-104036340D01*
X159404480Y-104293635D01*
X159251500Y-104533375D01*
X159192738Y-104661869D01*
X158860770Y-104661869D01*
X158851015Y-104612740D01*
X158723860Y-104279063D01*
X158649166Y-104116510D01*
X158365843Y-103653145D01*
X158028130Y-103259936D01*
X157986623Y-103228464D01*
X159087344Y-103228464D01*
X159140041Y-103281161D01*
X159192738Y-103228464D01*
X159140041Y-103175767D01*
X159087344Y-103228464D01*
X157986623Y-103228464D01*
X157690178Y-103003692D01*
X157649828Y-102983134D01*
X157418127Y-102886683D01*
X157353349Y-102908142D01*
X156776770Y-102908142D01*
X156761907Y-102244522D01*
X156743132Y-101089302D01*
X156738934Y-100785084D01*
X156733261Y-100335464D01*
X156887204Y-100335464D01*
X156890157Y-101111868D01*
X156900755Y-101785515D01*
X156902808Y-101863654D01*
X156911040Y-102065806D01*
X156918407Y-102072191D01*
X156924624Y-101894948D01*
X156926998Y-101721825D01*
X157137552Y-101721825D01*
X157453734Y-101798799D01*
X157730548Y-101882092D01*
X158305096Y-102192560D01*
X158732920Y-102651735D01*
X158847488Y-102818983D01*
X159018169Y-103033428D01*
X159094327Y-103074993D01*
X159066561Y-102944179D01*
X158925472Y-102641485D01*
X158681793Y-102310481D01*
X158312746Y-102001972D01*
X157900943Y-101786615D01*
X157516967Y-101711037D01*
X157137552Y-101721825D01*
X156926998Y-101721825D01*
X156929407Y-101546213D01*
X156932474Y-101038125D01*
X156933540Y-100382821D01*
X156933461Y-100204739D01*
X156933298Y-100143403D01*
X158834608Y-100143403D01*
X158893229Y-100183778D01*
X159140041Y-100266077D01*
X159208035Y-100288122D01*
X159464632Y-100382821D01*
X159543688Y-100411997D01*
X159805829Y-100530006D01*
X159913431Y-100609113D01*
X160138191Y-100846205D01*
X160359148Y-101148709D01*
X160395719Y-101205907D01*
X160558665Y-101438118D01*
X160643743Y-101500760D01*
X160668257Y-101408367D01*
X160648580Y-101276675D01*
X160480518Y-100961501D01*
X160182561Y-100649296D01*
X159805649Y-100379649D01*
X159400721Y-100192149D01*
X159018719Y-100126386D01*
X158949842Y-100128445D01*
X158834608Y-100143403D01*
X156933298Y-100143403D01*
X156931822Y-99589865D01*
X156929487Y-99286231D01*
X157462247Y-99286231D01*
X157640515Y-99318356D01*
X158023846Y-99328879D01*
X158315622Y-99334174D01*
X158657850Y-99375537D01*
X158952441Y-99481013D01*
X159298058Y-99677605D01*
X159582278Y-99850296D01*
X159737036Y-99927592D01*
X159766871Y-99902840D01*
X159698209Y-99782999D01*
X159341021Y-99425006D01*
X158842930Y-99200932D01*
X158239103Y-99128795D01*
X158003500Y-99139084D01*
X157680354Y-99177481D01*
X157482278Y-99232812D01*
X157462247Y-99286231D01*
X156929487Y-99286231D01*
X156928273Y-99128320D01*
X156923099Y-98831596D01*
X156916581Y-98711184D01*
X156909003Y-98778577D01*
X156900646Y-99045266D01*
X156891899Y-99564195D01*
X156887204Y-100335464D01*
X156733261Y-100335464D01*
X156726688Y-99814442D01*
X156719422Y-99028569D01*
X156718006Y-98521573D01*
X157830267Y-98521573D01*
X157982549Y-98558607D01*
X158328096Y-98557778D01*
X158710344Y-98556293D01*
X159066666Y-98628079D01*
X159456224Y-98805001D01*
X159983195Y-99085565D01*
X159726574Y-98810810D01*
X159643164Y-98731831D01*
X159239636Y-98496295D01*
X158748593Y-98365699D01*
X158257094Y-98366373D01*
X158126285Y-98389944D01*
X157876448Y-98460684D01*
X157830267Y-98521573D01*
X156718006Y-98521573D01*
X156717686Y-98407124D01*
X156722035Y-97929764D01*
X156733019Y-97576147D01*
X156751192Y-97325931D01*
X156777106Y-97158774D01*
X156811312Y-97054334D01*
X156854363Y-96992269D01*
X156911542Y-96945273D01*
X157048758Y-96890026D01*
X157270174Y-96865369D01*
X157617634Y-96868124D01*
X158132984Y-96895109D01*
X158402567Y-96911804D01*
X159091661Y-96955887D01*
X159608872Y-96996083D01*
X159983107Y-97040158D01*
X160243269Y-97095878D01*
X160418264Y-97171009D01*
X160536995Y-97273316D01*
X160628367Y-97410567D01*
X160721285Y-97590527D01*
X160974231Y-98089693D01*
X160724324Y-98324469D01*
X160455412Y-98661134D01*
X160293646Y-99060260D01*
X160293326Y-99085565D01*
X160288961Y-99430295D01*
X160321935Y-99535938D01*
X160544553Y-99902840D01*
X160571750Y-99947664D01*
X160974495Y-100316403D01*
X161483931Y-100613629D01*
X162053817Y-100810815D01*
X162637913Y-100879433D01*
X162738074Y-100877786D01*
X163220328Y-100839743D01*
X163517725Y-100755228D01*
X163619294Y-100627061D01*
X163599630Y-100593547D01*
X163412798Y-100561274D01*
X163034563Y-100589682D01*
X162992491Y-100594576D01*
X162407070Y-100592695D01*
X161843614Y-100474843D01*
X161642037Y-100389451D01*
X166329904Y-100389451D01*
X166457837Y-100464617D01*
X166781120Y-100606104D01*
X167139900Y-100764516D01*
X167561946Y-100970328D01*
X167887759Y-101149946D01*
X167962166Y-101197072D01*
X168337482Y-101462444D01*
X168678216Y-101738587D01*
X168757465Y-101808221D01*
X168843911Y-101872840D01*
X168782615Y-101791138D01*
X168572821Y-101561851D01*
X168237883Y-101257441D01*
X167669405Y-100873088D01*
X167050077Y-100567965D01*
X166464938Y-100389371D01*
X166393477Y-100377972D01*
X166329904Y-100389451D01*
X161642037Y-100389451D01*
X161339793Y-100261414D01*
X160933280Y-99972802D01*
X160661746Y-99629400D01*
X160562863Y-99251602D01*
X160565336Y-99179391D01*
X160687284Y-98759516D01*
X160964825Y-98439315D01*
X161359050Y-98266909D01*
X161572477Y-98218349D01*
X161745568Y-98134275D01*
X161710710Y-98038067D01*
X161469635Y-97924358D01*
X161326394Y-97857470D01*
X161049158Y-97593652D01*
X160905288Y-97238522D01*
X160891625Y-96841328D01*
X161005006Y-96451316D01*
X161242270Y-96117733D01*
X161600254Y-95889825D01*
X161800275Y-95842216D01*
X162113225Y-95915421D01*
X162234497Y-95970733D01*
X162399891Y-95983351D01*
X162414080Y-95868564D01*
X162261720Y-95653442D01*
X162021808Y-95299010D01*
X161912327Y-94833574D01*
X161993429Y-94364042D01*
X162265025Y-93936899D01*
X162577213Y-93747177D01*
X163006459Y-93689711D01*
X163510935Y-93757551D01*
X164051221Y-93941169D01*
X164587897Y-94231037D01*
X165081541Y-94617627D01*
X165087648Y-94623385D01*
X165638364Y-95285652D01*
X166015060Y-96059425D01*
X166207332Y-96923399D01*
X166257967Y-97292286D01*
X166335677Y-97576980D01*
X166429975Y-97657544D01*
X166542771Y-97537474D01*
X166555386Y-97516250D01*
X166592114Y-97476090D01*
X166656936Y-97447077D01*
X166770048Y-97430178D01*
X166951644Y-97426363D01*
X167221921Y-97436597D01*
X167601073Y-97461850D01*
X168109295Y-97503088D01*
X168766782Y-97561281D01*
X169593731Y-97637394D01*
X170610335Y-97732397D01*
X170811284Y-97751518D01*
X171379267Y-97812832D01*
X171776109Y-97876244D01*
X172032208Y-97953964D01*
X172177960Y-98058203D01*
X172243760Y-98201171D01*
X172260004Y-98395078D01*
X172266463Y-98478837D01*
X172307506Y-98763239D01*
X172377922Y-99164033D01*
X172467809Y-99622715D01*
X172483168Y-99698558D01*
X172700965Y-101279011D01*
X172746632Y-102935039D01*
X172622982Y-104626816D01*
X172332830Y-106314517D01*
X171878988Y-107958317D01*
X171602976Y-108788584D01*
X171351464Y-108467211D01*
X171215624Y-108319561D01*
X170771952Y-108026444D01*
X170237027Y-107865050D01*
X169679493Y-107860295D01*
X169196409Y-107932738D01*
X169667876Y-107056120D01*
X170027843Y-106358885D01*
X170403074Y-105565058D01*
X170718867Y-104822018D01*
X170957355Y-104172141D01*
X171100671Y-103657803D01*
X171144610Y-103392847D01*
X171144319Y-102582059D01*
X170946945Y-101803624D01*
X170562747Y-101087367D01*
X170001982Y-100463117D01*
X169862547Y-100345877D01*
X169325239Y-99964690D01*
X168720873Y-99620131D01*
X168105124Y-99338582D01*
X167533665Y-99146426D01*
X167062171Y-99070045D01*
X166929473Y-99081878D01*
X166886030Y-99146763D01*
X166996742Y-99249497D01*
X167235774Y-99369258D01*
X167577291Y-99485225D01*
X168121307Y-99664189D01*
X169078948Y-100138061D01*
X169908572Y-100778352D01*
X170031661Y-100897327D01*
X170327529Y-101229553D01*
X170524783Y-101563721D01*
X170638144Y-101872840D01*
X170681394Y-101990775D01*
X170789378Y-102381935D01*
X170877378Y-102966964D01*
X170841539Y-103510342D01*
X170681879Y-104093607D01*
X170661885Y-104143758D01*
X170608912Y-104276630D01*
X170420279Y-104640224D01*
X170203289Y-104963471D01*
X169994634Y-105195053D01*
X169831008Y-105283651D01*
X169826279Y-105282983D01*
X169757246Y-105178378D01*
X169691686Y-104949553D01*
X169599324Y-104646862D01*
X169359972Y-104143309D01*
X169023362Y-103594443D01*
X168624408Y-103055604D01*
X168198024Y-102582128D01*
X168184938Y-102570429D01*
X169684990Y-102570429D01*
X169730453Y-102715426D01*
X169896282Y-102972526D01*
X169933373Y-103025411D01*
X170135081Y-103396015D01*
X170276438Y-103781784D01*
X170318640Y-103926801D01*
X170419173Y-104151087D01*
X170505014Y-104227567D01*
X170547540Y-104143758D01*
X170518126Y-103887178D01*
X170458211Y-103668394D01*
X170294852Y-103259857D01*
X170093528Y-102894224D01*
X169895405Y-102653075D01*
X169759952Y-102559645D01*
X169684990Y-102570429D01*
X168184938Y-102570429D01*
X167747244Y-102179138D01*
X166886374Y-101610404D01*
X165937054Y-101224905D01*
X164887520Y-101018444D01*
X163726006Y-100986822D01*
X163558430Y-100995515D01*
X162785235Y-101080526D01*
X162109086Y-101251099D01*
X161741672Y-101408367D01*
X161452168Y-101532286D01*
X160736670Y-101949133D01*
X160480501Y-102111905D01*
X160231859Y-102260350D01*
X160098932Y-102314495D01*
X160045638Y-102286709D01*
X160035892Y-102189361D01*
X160023507Y-102133941D01*
X159898128Y-101920302D01*
X159672842Y-101638224D01*
X159391366Y-101335953D01*
X159097419Y-101061732D01*
X158834717Y-100863806D01*
X158597179Y-100746392D01*
X158266392Y-100674119D01*
X157810174Y-100662098D01*
X157780137Y-100662850D01*
X157503055Y-100676343D01*
X157385755Y-100695641D01*
X157453734Y-100716829D01*
X157744169Y-100758037D01*
X158404612Y-100914450D01*
X158921327Y-101156992D01*
X159338582Y-101510979D01*
X159700647Y-102001727D01*
X160019400Y-102519766D01*
X159702054Y-102821418D01*
X159649109Y-102873675D01*
X159476817Y-103074993D01*
X159423422Y-103137384D01*
X159361833Y-103228464D01*
X159237628Y-103412143D01*
X159125707Y-103642289D01*
X159121638Y-103772163D01*
X159211391Y-103757110D01*
X159382513Y-103567114D01*
X159618000Y-103203786D01*
X159638021Y-103171898D01*
X159783743Y-103002961D01*
X160705221Y-103002961D01*
X160741083Y-103066973D01*
X160792720Y-103049654D01*
X160969986Y-102947056D01*
X161064546Y-102883128D01*
X164785259Y-102883128D01*
X164884025Y-102964979D01*
X165030341Y-103042607D01*
X165156015Y-103058081D01*
X165147510Y-102964979D01*
X165094718Y-102914904D01*
X164904153Y-102861199D01*
X164880186Y-102861556D01*
X164785259Y-102883128D01*
X161064546Y-102883128D01*
X161157496Y-102820289D01*
X162137404Y-102820289D01*
X162249170Y-102811591D01*
X162985285Y-102658123D01*
X163708230Y-102545205D01*
X164304328Y-102507717D01*
X164811717Y-102546108D01*
X165268541Y-102660826D01*
X165712938Y-102852320D01*
X165873305Y-102955612D01*
X166000776Y-103058081D01*
X166180201Y-103202313D01*
X166543953Y-103532141D01*
X166572741Y-103560815D01*
X166915923Y-103902633D01*
X167212416Y-104205403D01*
X167480771Y-104462999D01*
X167662692Y-104618166D01*
X167729668Y-104644897D01*
X167650375Y-104373914D01*
X167422490Y-104024875D01*
X167082196Y-103643456D01*
X166665824Y-103265942D01*
X166209702Y-102928619D01*
X165750161Y-102667773D01*
X165475785Y-102547693D01*
X165208011Y-102462095D01*
X164911172Y-102412968D01*
X164524737Y-102390608D01*
X163988174Y-102385311D01*
X163524740Y-102388847D01*
X163128460Y-102406730D01*
X162845316Y-102447148D01*
X162622514Y-102518207D01*
X162407261Y-102628010D01*
X162204366Y-102752185D01*
X162137404Y-102820289D01*
X161157496Y-102820289D01*
X161212529Y-102783084D01*
X161472238Y-102593426D01*
X161700996Y-102413770D01*
X161850692Y-102279805D01*
X161859227Y-102259874D01*
X166184505Y-102259874D01*
X166197280Y-102301928D01*
X166380813Y-102449792D01*
X166733078Y-102700016D01*
X166999706Y-102899656D01*
X167426446Y-103265903D01*
X167787879Y-103625739D01*
X168024294Y-103910344D01*
X168356306Y-104361786D01*
X168538966Y-104644897D01*
X168636057Y-104795382D01*
X168673225Y-104858519D01*
X168834832Y-105119305D01*
X168932506Y-105252802D01*
X168946265Y-105230954D01*
X168823464Y-104929447D01*
X168504884Y-104381381D01*
X168077944Y-103807926D01*
X167587013Y-103261321D01*
X167076462Y-102793804D01*
X166590659Y-102457613D01*
X166344515Y-102327079D01*
X166184505Y-102259874D01*
X161859227Y-102259874D01*
X161873210Y-102227220D01*
X161850233Y-102230431D01*
X161665880Y-102309811D01*
X161394876Y-102464165D01*
X161103757Y-102651254D01*
X160859061Y-102828837D01*
X160727323Y-102954674D01*
X160705221Y-103002961D01*
X159783743Y-103002961D01*
X159886738Y-102883557D01*
X160267061Y-102546261D01*
X160727985Y-102198824D01*
X161218501Y-101880064D01*
X161687604Y-101628799D01*
X162094650Y-101463055D01*
X162896578Y-101237545D01*
X163715120Y-101118247D01*
X164462448Y-101121225D01*
X165576646Y-101333539D01*
X166614396Y-101731356D01*
X167425649Y-102227220D01*
X167550722Y-102303669D01*
X168363918Y-103039804D01*
X168658823Y-103380394D01*
X168978763Y-103826879D01*
X169244381Y-104321921D01*
X169503017Y-104944686D01*
X169611790Y-105230954D01*
X169704589Y-105475181D01*
X169409250Y-105693535D01*
X169113912Y-105911888D01*
X169068508Y-105676815D01*
X169046119Y-105572011D01*
X169023261Y-105550782D01*
X169008751Y-105730254D01*
X168993434Y-105836282D01*
X168865356Y-106058878D01*
X168574916Y-106283574D01*
X168442212Y-106364724D01*
X168204682Y-106495282D01*
X168074293Y-106545520D01*
X168047299Y-106524803D01*
X167937176Y-106360002D01*
X167776048Y-106066593D01*
X167588427Y-105687850D01*
X167547610Y-105603794D01*
X167200627Y-105005560D01*
X166790740Y-104456621D01*
X166359877Y-104007610D01*
X165949964Y-103709159D01*
X165912637Y-103704959D01*
X165933701Y-103738344D01*
X165977358Y-103807537D01*
X166159827Y-104014424D01*
X166440018Y-104301419D01*
X166525284Y-104387862D01*
X166921990Y-104843390D01*
X167279376Y-105334694D01*
X167569387Y-105816202D01*
X167584786Y-105849926D01*
X167763967Y-106242341D01*
X167835062Y-106567536D01*
X167821342Y-106620710D01*
X167680022Y-106795595D01*
X167418852Y-107011085D01*
X167137195Y-107203710D01*
X167079125Y-107243424D01*
X166702133Y-107468850D01*
X166329171Y-107663607D01*
X166001532Y-107803933D01*
X165760509Y-107866071D01*
X165647395Y-107826261D01*
X165533558Y-107550753D01*
X165258077Y-107051676D01*
X164936347Y-106618719D01*
X164615969Y-106321334D01*
X164318219Y-106137261D01*
X164014754Y-105993112D01*
X163803773Y-105943626D01*
X163724689Y-106002883D01*
X163777252Y-106079580D01*
X163961826Y-106164510D01*
X164280765Y-106311743D01*
X164661306Y-106619753D01*
X165009422Y-107025702D01*
X165271289Y-107475695D01*
X165272454Y-107478328D01*
X165408753Y-107799364D01*
X165461306Y-107987014D01*
X165460859Y-107988932D01*
X165435287Y-108098622D01*
X165335868Y-108191530D01*
X165313424Y-108206944D01*
X165158644Y-108287386D01*
X165094175Y-108320892D01*
X164736511Y-108481194D01*
X164707872Y-108494030D01*
X164180101Y-108715562D01*
X163536445Y-108974692D01*
X162802490Y-109260622D01*
X162707548Y-109228338D01*
X162668403Y-109010072D01*
X162587094Y-108675709D01*
X162351133Y-108346112D01*
X162019069Y-108112364D01*
X161650082Y-108031345D01*
X161610572Y-108046416D01*
X161680094Y-108120427D01*
X161898847Y-108234502D01*
X162250895Y-108438416D01*
X162490637Y-108733215D01*
X162565353Y-109117390D01*
X162564828Y-109166502D01*
X162529480Y-109361805D01*
X162397650Y-109461310D01*
X162112209Y-109515167D01*
X161951924Y-109519920D01*
X161828181Y-109455453D01*
X161714203Y-109277515D01*
X161569637Y-108943595D01*
X161213307Y-108191323D01*
X160833967Y-107626582D01*
X162305360Y-107626582D01*
X162363928Y-107677087D01*
X162604118Y-107782070D01*
X162670965Y-107811394D01*
X162986241Y-108031458D01*
X163207820Y-108382656D01*
X163403877Y-108814356D01*
X163406191Y-108481194D01*
X163360856Y-108287386D01*
X164462448Y-108287386D01*
X164515145Y-108340083D01*
X164567842Y-108287386D01*
X164515145Y-108234688D01*
X164462448Y-108287386D01*
X163360856Y-108287386D01*
X163344218Y-108216258D01*
X163128820Y-107913509D01*
X162819108Y-107690865D01*
X162478221Y-107607754D01*
X162413232Y-107609534D01*
X162305360Y-107626582D01*
X160833967Y-107626582D01*
X160610249Y-107293522D01*
X160044405Y-106718922D01*
X160686312Y-106718922D01*
X160697656Y-106754500D01*
X160759979Y-106733380D01*
X160846745Y-106541170D01*
X161313370Y-106541170D01*
X161498752Y-106573597D01*
X161881648Y-106567360D01*
X161884276Y-106567194D01*
X162519675Y-106579052D01*
X163040160Y-106716491D01*
X163511476Y-106996837D01*
X163635272Y-107107234D01*
X163883213Y-107375710D01*
X164132028Y-107689008D01*
X164293268Y-107898174D01*
X164406478Y-108016951D01*
X164424286Y-107988932D01*
X164389010Y-107873194D01*
X164357054Y-107699401D01*
X164356022Y-107684165D01*
X164257146Y-107491892D01*
X164030972Y-107239082D01*
X163725806Y-106968949D01*
X163389953Y-106724706D01*
X163071718Y-106549566D01*
X162897660Y-106479534D01*
X162445549Y-106364522D01*
X161962251Y-106361505D01*
X161880856Y-106368851D01*
X161510567Y-106423102D01*
X161319357Y-106485774D01*
X161313370Y-106541170D01*
X160846745Y-106541170D01*
X160856246Y-106520123D01*
X160867737Y-106489833D01*
X161093065Y-106099057D01*
X161438550Y-105693038D01*
X161693432Y-105467735D01*
X164991908Y-105467735D01*
X165059806Y-105592437D01*
X165267581Y-105845140D01*
X165437214Y-106058569D01*
X165714085Y-106484187D01*
X165916217Y-106888807D01*
X166023366Y-107139389D01*
X166109667Y-107272442D01*
X166141920Y-107203710D01*
X166117770Y-106981586D01*
X165965414Y-106556855D01*
X165709973Y-106118952D01*
X165394073Y-105735967D01*
X165060339Y-105475989D01*
X164991908Y-105467735D01*
X161693432Y-105467735D01*
X161838638Y-105339380D01*
X162227776Y-105105688D01*
X162462086Y-105028356D01*
X162868702Y-104933647D01*
X162987186Y-104914771D01*
X164040871Y-104914771D01*
X164093568Y-104967469D01*
X164146265Y-104914771D01*
X164093568Y-104862074D01*
X164040871Y-104914771D01*
X162987186Y-104914771D01*
X163299484Y-104865018D01*
X163988174Y-104784383D01*
X163326075Y-104770532D01*
X162644958Y-104828785D01*
X161960789Y-105068424D01*
X161383553Y-105486016D01*
X160925799Y-106074742D01*
X160833530Y-106246664D01*
X160716944Y-106530689D01*
X160686312Y-106718922D01*
X160044405Y-106718922D01*
X159855093Y-106526680D01*
X159150097Y-106025143D01*
X159633125Y-106025143D01*
X159651477Y-106039505D01*
X159744525Y-105956225D01*
X159878617Y-105742722D01*
X159879250Y-105741549D01*
X160163883Y-105325938D01*
X160558771Y-104889852D01*
X160994390Y-104502268D01*
X161401213Y-104232160D01*
X161670575Y-104120092D01*
X162084422Y-103986937D01*
X162234737Y-103948849D01*
X164063637Y-103948849D01*
X164186830Y-104032812D01*
X164505679Y-104174610D01*
X164782729Y-104306854D01*
X165200934Y-104561233D01*
X165481762Y-104784383D01*
X165530256Y-104822917D01*
X165617540Y-104914771D01*
X165652626Y-104951694D01*
X165933077Y-105305978D01*
X166140485Y-105644625D01*
X166263948Y-105868375D01*
X166335305Y-105934710D01*
X166343179Y-105849926D01*
X166285809Y-105640270D01*
X166161438Y-105331988D01*
X165941566Y-104978177D01*
X165553592Y-104576010D01*
X165085941Y-104237879D01*
X164597278Y-104004940D01*
X164146265Y-103918343D01*
X164130288Y-103918577D01*
X164063637Y-103948849D01*
X162234737Y-103948849D01*
X162521587Y-103876165D01*
X162659882Y-103846341D01*
X162959363Y-103777644D01*
X163073074Y-103738344D01*
X163016830Y-103719289D01*
X162806443Y-103711331D01*
X162598545Y-103719456D01*
X161981133Y-103855616D01*
X161340955Y-104132495D01*
X160733930Y-104516818D01*
X160453776Y-104764810D01*
X160215973Y-104975313D01*
X159843003Y-105474707D01*
X159766791Y-105621220D01*
X159659454Y-105876646D01*
X159633125Y-106025143D01*
X159150097Y-106025143D01*
X158926777Y-105866272D01*
X158677633Y-105729461D01*
X158295929Y-105550815D01*
X157898996Y-105390380D01*
X157537907Y-105266904D01*
X157263737Y-105199134D01*
X157127556Y-105205818D01*
X157158728Y-105244473D01*
X157339995Y-105331361D01*
X157634079Y-105437690D01*
X158467420Y-105767336D01*
X159426749Y-106331672D01*
X159741994Y-106608495D01*
X160238820Y-107044767D01*
X160899152Y-107902502D01*
X161403262Y-108900760D01*
X161433280Y-108977600D01*
X161550256Y-109357458D01*
X161540735Y-109605103D01*
X161391626Y-109760811D01*
X161089834Y-109864856D01*
X161004753Y-109880091D01*
X160854967Y-109852849D01*
X160707566Y-109713330D01*
X160513310Y-109423867D01*
X160443133Y-109314214D01*
X159874742Y-108582421D01*
X159171896Y-107886948D01*
X158398026Y-107291735D01*
X158289617Y-107220264D01*
X157931236Y-106991783D01*
X157636603Y-106815148D01*
X157460920Y-106723814D01*
X157418074Y-106708302D01*
X157312668Y-106694730D01*
X157350813Y-106763344D01*
X157503561Y-106889447D01*
X157738273Y-107045884D01*
X157741965Y-107048345D01*
X158037078Y-107215341D01*
X158216892Y-107314572D01*
X158633058Y-107575748D01*
X158989495Y-107835878D01*
X159044649Y-107883530D01*
X159267092Y-108105823D01*
X159281274Y-108119995D01*
X159570263Y-108441761D01*
X159879262Y-108808610D01*
X160175915Y-109180327D01*
X160427869Y-109516697D01*
X160602768Y-109777502D01*
X160668257Y-109922528D01*
X160658484Y-109941774D01*
X160521178Y-110025836D01*
X160283080Y-110122455D01*
X160023045Y-110202437D01*
X159819928Y-110236590D01*
X159806642Y-110229960D01*
X159726126Y-110100342D01*
X159624658Y-109857215D01*
X159602272Y-109802642D01*
X159404981Y-109477951D01*
X159091574Y-109083259D01*
X158706243Y-108664331D01*
X158293179Y-108266927D01*
X157896573Y-107936812D01*
X157774347Y-107857841D01*
X158138797Y-107857841D01*
X158160168Y-107936122D01*
X158305508Y-108065321D01*
X158437542Y-108111988D01*
X158526233Y-108105823D01*
X158496220Y-107979352D01*
X158467100Y-107921291D01*
X158336403Y-107796487D01*
X158201121Y-107766550D01*
X158138797Y-107857841D01*
X157774347Y-107857841D01*
X157560615Y-107719748D01*
X157334617Y-107613568D01*
X157095443Y-107529019D01*
X157034916Y-107550921D01*
X157159416Y-107668086D01*
X157475322Y-107869328D01*
X157758947Y-108047826D01*
X157880817Y-108124524D01*
X158487567Y-108591936D01*
X158991271Y-109089486D01*
X159359967Y-109583893D01*
X159561696Y-110041875D01*
X159579320Y-110120604D01*
X159570791Y-110259736D01*
X159535979Y-110284804D01*
X159448543Y-110347766D01*
X159165992Y-110430437D01*
X158687369Y-110535027D01*
X158235001Y-110605053D01*
X157858815Y-110635312D01*
X157601671Y-110622385D01*
X157506431Y-110562853D01*
X157505415Y-110552987D01*
X157417551Y-110401236D01*
X157222177Y-110168161D01*
X156967879Y-109902332D01*
X156703240Y-109652319D01*
X156476844Y-109466693D01*
X156337276Y-109394025D01*
X156338707Y-109448856D01*
X156469279Y-109604783D01*
X156703189Y-109826365D01*
X156871582Y-109979456D01*
X157205995Y-110335561D01*
X157359082Y-110601661D01*
X157328199Y-110773751D01*
X157279695Y-110801566D01*
X157057768Y-110855022D01*
X156745504Y-110884663D01*
X156424594Y-110875311D01*
X156159376Y-110784676D01*
X155875891Y-110570194D01*
X155695369Y-110424952D01*
X155400647Y-110277560D01*
X155052349Y-110239522D01*
X154702039Y-110282953D01*
X154317621Y-110483663D01*
X153993823Y-110869882D01*
X153947714Y-110937188D01*
X153804684Y-111065078D01*
X153582942Y-111133694D01*
X153216539Y-111168359D01*
X153027555Y-111174735D01*
X152570397Y-111173828D01*
X152028956Y-111158631D01*
X151483909Y-111130890D01*
X151483363Y-111130855D01*
X150978877Y-111094476D01*
X150644275Y-111056312D01*
X150438846Y-111006493D01*
X150376231Y-110968302D01*
X152575855Y-110968302D01*
X152595232Y-111014587D01*
X152708645Y-110893023D01*
X152904743Y-110605796D01*
X153079770Y-110354987D01*
X153608623Y-109812854D01*
X154225006Y-109433031D01*
X154897513Y-109231643D01*
X155594735Y-109224813D01*
X155610534Y-109226966D01*
X155885427Y-109254866D01*
X155985765Y-109233806D01*
X155942101Y-109157899D01*
X155727562Y-109057573D01*
X155365171Y-109022436D01*
X154920354Y-109055311D01*
X154451538Y-109151672D01*
X154017150Y-109306993D01*
X154004405Y-109312899D01*
X153489128Y-109625250D01*
X153075124Y-110052371D01*
X152801923Y-110500664D01*
X152715667Y-110642201D01*
X152661863Y-110751982D01*
X152575855Y-110968302D01*
X150376231Y-110968302D01*
X150321878Y-110935150D01*
X150252660Y-110832413D01*
X150217883Y-110763035D01*
X150155936Y-110684686D01*
X150135971Y-110790498D01*
X150110889Y-110889855D01*
X149969111Y-110971167D01*
X149753003Y-110894278D01*
X149675317Y-110816451D01*
X149502932Y-110600131D01*
X149431886Y-110500664D01*
X151393568Y-110500664D01*
X151446265Y-110553361D01*
X151498963Y-110500664D01*
X151446265Y-110447966D01*
X151393568Y-110500664D01*
X149431886Y-110500664D01*
X149399700Y-110455603D01*
X150254343Y-110455603D01*
X150297912Y-110433240D01*
X150361904Y-110304430D01*
X151531083Y-110304430D01*
X151536442Y-110308195D01*
X151625872Y-110250308D01*
X151751741Y-110062533D01*
X151772910Y-110024209D01*
X152267264Y-109354835D01*
X152923886Y-108808035D01*
X153726990Y-108394326D01*
X154433771Y-108189892D01*
X155847366Y-108189892D01*
X155952303Y-108274440D01*
X156191863Y-108395754D01*
X156545899Y-108538041D01*
X156561408Y-108543741D01*
X157157312Y-108850894D01*
X157566050Y-109233806D01*
X157637262Y-109300519D01*
X158034897Y-109923926D01*
X158098095Y-110043650D01*
X158225346Y-110257761D01*
X158299030Y-110342572D01*
X158349195Y-110284804D01*
X158311256Y-110091283D01*
X158185393Y-109800725D01*
X157989732Y-109453870D01*
X157742399Y-109091458D01*
X157525073Y-108872817D01*
X157113377Y-108594922D01*
X156615758Y-108354491D01*
X156101128Y-108189397D01*
X155897199Y-108157901D01*
X155847366Y-108189892D01*
X154433771Y-108189892D01*
X154660788Y-108124228D01*
X154698463Y-108116841D01*
X154936963Y-108068494D01*
X154996510Y-108047826D01*
X154866657Y-108050419D01*
X154536957Y-108071854D01*
X154299507Y-108097703D01*
X153542839Y-108303373D01*
X152831595Y-108672211D01*
X152216988Y-109172927D01*
X151750235Y-109774236D01*
X151650239Y-109956431D01*
X151546996Y-110189269D01*
X151531083Y-110304430D01*
X150361904Y-110304430D01*
X150386964Y-110253986D01*
X150499506Y-109954582D01*
X150712596Y-109461324D01*
X151142536Y-108857517D01*
X151512011Y-108532823D01*
X152261227Y-108532823D01*
X152399766Y-108434681D01*
X152686141Y-108191492D01*
X152896954Y-108023488D01*
X153287380Y-107756764D01*
X153687386Y-107522274D01*
X153923980Y-107408072D01*
X154332435Y-107246350D01*
X154740828Y-107118463D01*
X155100784Y-107036819D01*
X155363930Y-107013829D01*
X155481893Y-107061903D01*
X155576134Y-107095111D01*
X155782804Y-107023571D01*
X156006126Y-106947204D01*
X156382413Y-106980087D01*
X156530723Y-107020259D01*
X156772776Y-107066979D01*
X156846521Y-107045884D01*
X156735988Y-106957970D01*
X156679400Y-106932397D01*
X156411091Y-106871392D01*
X156077274Y-106846998D01*
X155609336Y-106846998D01*
X155609336Y-106447109D01*
X155610305Y-106400565D01*
X155613315Y-106382874D01*
X158244191Y-106382874D01*
X158289347Y-106439540D01*
X158454979Y-106548381D01*
X158588309Y-106607779D01*
X158665768Y-106608495D01*
X158620612Y-106551829D01*
X158454979Y-106442987D01*
X158321649Y-106383590D01*
X158244191Y-106382874D01*
X155613315Y-106382874D01*
X155660355Y-106106439D01*
X155764489Y-105918455D01*
X155799119Y-105888683D01*
X155866055Y-105774007D01*
X155764489Y-105634536D01*
X155753663Y-105622423D01*
X155707960Y-105529441D01*
X155671729Y-105362148D01*
X155643622Y-105097797D01*
X155622290Y-104713645D01*
X155606385Y-104186945D01*
X155594559Y-103494951D01*
X155585462Y-102614920D01*
X155561588Y-99750456D01*
X155506416Y-102745486D01*
X155495349Y-103305070D01*
X155475080Y-104121148D01*
X155452595Y-104753326D01*
X155426844Y-105218669D01*
X155396778Y-105534243D01*
X155361348Y-105717116D01*
X155319502Y-105784352D01*
X155295706Y-105776404D01*
X155262583Y-105687005D01*
X155235480Y-105488241D01*
X155213652Y-105163210D01*
X155196352Y-104695009D01*
X155182837Y-104066734D01*
X155172360Y-103261482D01*
X155164175Y-102262351D01*
X155140591Y-98696514D01*
X155081610Y-102279917D01*
X155070385Y-102938501D01*
X155055757Y-103732363D01*
X155041537Y-104437114D01*
X155028278Y-105028422D01*
X155016533Y-105481959D01*
X155006856Y-105773392D01*
X154999799Y-105878392D01*
X154735205Y-105971355D01*
X154391263Y-105957780D01*
X154138489Y-105894337D01*
X154105055Y-104034430D01*
X154097388Y-103613096D01*
X154088461Y-103153798D01*
X154081851Y-102879965D01*
X154077206Y-102795818D01*
X154074175Y-102905577D01*
X154072407Y-103213463D01*
X154071551Y-103723697D01*
X154071255Y-104440498D01*
X154071536Y-104740091D01*
X154074404Y-105350772D01*
X154079974Y-105856764D01*
X154087767Y-106231542D01*
X154097305Y-106448582D01*
X154108107Y-106481359D01*
X154109176Y-106475406D01*
X154247107Y-106285892D01*
X154554405Y-106149589D01*
X154993796Y-106083251D01*
X155081681Y-106070493D01*
X155248499Y-105995062D01*
X155266373Y-105978051D01*
X155401242Y-105921485D01*
X155478988Y-106056666D01*
X155503942Y-106390290D01*
X155503244Y-106495035D01*
X155482142Y-106737636D01*
X155409834Y-106842159D01*
X155257207Y-106864564D01*
X155051794Y-106888752D01*
X154687580Y-106972037D01*
X154275444Y-107093790D01*
X153896680Y-107232051D01*
X153882155Y-107237518D01*
X153834309Y-107239397D01*
X153796371Y-107196106D01*
X153767197Y-107086942D01*
X153745645Y-106891205D01*
X153730574Y-106588190D01*
X153720839Y-106157197D01*
X153715301Y-105577524D01*
X153712815Y-104828468D01*
X153712241Y-103889326D01*
X153712159Y-103681009D01*
X153709336Y-102603197D01*
X153702785Y-101497140D01*
X153692901Y-100382760D01*
X153680082Y-99279974D01*
X153664726Y-98208702D01*
X153647230Y-97188863D01*
X153627992Y-96240376D01*
X153607409Y-95383161D01*
X153585878Y-94637135D01*
X153563798Y-94022219D01*
X153541564Y-93558332D01*
X153519576Y-93265392D01*
X153498229Y-93163319D01*
X153486031Y-93217125D01*
X153467249Y-93458207D01*
X153446870Y-93873479D01*
X153425593Y-94441717D01*
X153404112Y-95141694D01*
X153383126Y-95952185D01*
X153378399Y-96167054D01*
X153363330Y-96851965D01*
X153345420Y-97819808D01*
X153338369Y-98242754D01*
X153321777Y-99291464D01*
X153310118Y-100154570D01*
X153309476Y-100224730D01*
X153303745Y-100850597D01*
X153303015Y-101398066D01*
X153308280Y-101815503D01*
X153319897Y-102121430D01*
X153338219Y-102334371D01*
X153363603Y-102472850D01*
X153396401Y-102555390D01*
X153433001Y-102596099D01*
X153436970Y-102600514D01*
X153486879Y-102654262D01*
X153531402Y-102764467D01*
X153563596Y-102951754D01*
X153585350Y-103242860D01*
X153598551Y-103664523D01*
X153605087Y-104243480D01*
X153606846Y-105006468D01*
X153606385Y-105642155D01*
X153603127Y-106238838D01*
X153594419Y-106676541D01*
X153577614Y-106983587D01*
X153556978Y-107136941D01*
X153550067Y-107188296D01*
X153509131Y-107318989D01*
X153452159Y-107403987D01*
X153376506Y-107471612D01*
X153234729Y-107590328D01*
X152963794Y-107828734D01*
X152749289Y-108023900D01*
X152665096Y-108100503D01*
X152433875Y-108320837D01*
X152272079Y-108492635D01*
X152261227Y-108532823D01*
X151512011Y-108532823D01*
X151751913Y-108321997D01*
X151892629Y-108214806D01*
X152043695Y-108077577D01*
X152057560Y-108023900D01*
X151989715Y-108045540D01*
X151781045Y-108161591D01*
X151509706Y-108344416D01*
X151381455Y-108445702D01*
X150957821Y-108890596D01*
X150588373Y-109434033D01*
X150333993Y-109990762D01*
X150323127Y-110024685D01*
X150260049Y-110287661D01*
X150254343Y-110455603D01*
X149399700Y-110455603D01*
X149296596Y-110311255D01*
X149286944Y-110297132D01*
X148953647Y-109862516D01*
X148645148Y-109523535D01*
X149622527Y-109523535D01*
X149669885Y-109545469D01*
X149785203Y-109390636D01*
X149951328Y-109058944D01*
X150203401Y-108579007D01*
X150721103Y-107922147D01*
X151360087Y-107427399D01*
X151635838Y-107251719D01*
X151764425Y-107136941D01*
X151722878Y-107110619D01*
X151524942Y-107178954D01*
X151184367Y-107348146D01*
X151117215Y-107386271D01*
X150966871Y-107504477D01*
X150684414Y-107726556D01*
X150578014Y-107810212D01*
X150109506Y-108384953D01*
X149757080Y-109055161D01*
X149755644Y-109057891D01*
X149660280Y-109324926D01*
X149622527Y-109523535D01*
X148645148Y-109523535D01*
X148565275Y-109435770D01*
X148158192Y-109049005D01*
X147768764Y-108734331D01*
X147433357Y-108523858D01*
X147188336Y-108449697D01*
X147163463Y-108452630D01*
X147166809Y-108510144D01*
X147335892Y-108621378D01*
X147882295Y-108980180D01*
X148474152Y-109505957D01*
X149020222Y-110129215D01*
X149050719Y-110169081D01*
X149276451Y-110480280D01*
X149435990Y-110728272D01*
X149496473Y-110862459D01*
X149449244Y-110905923D01*
X149248373Y-110929618D01*
X148944147Y-110914438D01*
X148596113Y-110866861D01*
X148263818Y-110793362D01*
X148006809Y-110700421D01*
X147953631Y-110668850D01*
X147720835Y-110451265D01*
X147522255Y-110161736D01*
X147488183Y-110101366D01*
X147242814Y-109793469D01*
X146956733Y-109566288D01*
X146598133Y-109369673D01*
X146984413Y-109724380D01*
X147218438Y-109962288D01*
X147441786Y-110249263D01*
X147565260Y-110486104D01*
X147560134Y-110627736D01*
X147545322Y-110636081D01*
X147379761Y-110644732D01*
X147112845Y-110610712D01*
X147085362Y-110605124D01*
X146692286Y-110431959D01*
X146268708Y-110071089D01*
X146051854Y-109856908D01*
X145846884Y-109674816D01*
X145738236Y-109604813D01*
X145734165Y-109629012D01*
X145827219Y-109761930D01*
X146016934Y-109972114D01*
X146135602Y-110101400D01*
X146283641Y-110294779D01*
X146317550Y-110394800D01*
X146218669Y-110391073D01*
X145953264Y-110335711D01*
X145561851Y-110237464D01*
X145083634Y-110107562D01*
X144557816Y-109957238D01*
X144310190Y-109883298D01*
X144668398Y-109883298D01*
X144678285Y-109917005D01*
X144806881Y-109878851D01*
X145021692Y-109777454D01*
X145290222Y-109621432D01*
X145309279Y-109609156D01*
X145571660Y-109411104D01*
X145853076Y-109157821D01*
X146117799Y-108887891D01*
X146330100Y-108639899D01*
X146454253Y-108452427D01*
X146454529Y-108364060D01*
X146433149Y-108367479D01*
X146285483Y-108465825D01*
X146043699Y-108670532D01*
X145747865Y-108948463D01*
X145678237Y-109016242D01*
X145350774Y-109323210D01*
X145210243Y-109446722D01*
X145059015Y-109579636D01*
X144859129Y-109735763D01*
X144809717Y-109769111D01*
X144668398Y-109883298D01*
X144310190Y-109883298D01*
X144023599Y-109797723D01*
X143520187Y-109640247D01*
X143086782Y-109496042D01*
X142953208Y-109446722D01*
X143489004Y-109446722D01*
X143541701Y-109499419D01*
X143594398Y-109446722D01*
X143541701Y-109394025D01*
X143489004Y-109446722D01*
X142953208Y-109446722D01*
X142762588Y-109376339D01*
X142685845Y-109345313D01*
X143839340Y-109345313D01*
X143868969Y-109393375D01*
X144058640Y-109322579D01*
X144396496Y-109120062D01*
X144595471Y-108978385D01*
X145064054Y-108577056D01*
X145482050Y-108130017D01*
X145706123Y-107828215D01*
X146665964Y-107828215D01*
X146700713Y-107914246D01*
X146805389Y-107884022D01*
X146813401Y-107873166D01*
X148074457Y-107873166D01*
X148161060Y-107974057D01*
X148393323Y-108198661D01*
X148547401Y-108350937D01*
X148559618Y-108364060D01*
X148834349Y-108659167D01*
X149048698Y-108919751D01*
X149136069Y-109033490D01*
X149246998Y-109130259D01*
X149282346Y-109055161D01*
X149260851Y-108954104D01*
X149114098Y-108700839D01*
X148870805Y-108412880D01*
X148581108Y-108146042D01*
X148295143Y-107956141D01*
X148125285Y-107875656D01*
X148074457Y-107873166D01*
X146813401Y-107873166D01*
X146903111Y-107751608D01*
X146921283Y-107659380D01*
X146841928Y-107626452D01*
X146803970Y-107643866D01*
X146674983Y-107793350D01*
X146665964Y-107828215D01*
X145706123Y-107828215D01*
X145817998Y-107677532D01*
X146040434Y-107259859D01*
X146117898Y-106917261D01*
X146091452Y-106864015D01*
X145993021Y-106965439D01*
X145829053Y-107246712D01*
X145484149Y-107808383D01*
X144952965Y-108417371D01*
X144262875Y-108975105D01*
X143981612Y-109191257D01*
X143839340Y-109345313D01*
X142685845Y-109345313D01*
X142194263Y-109146574D01*
X142757591Y-108897961D01*
X143110552Y-108723544D01*
X143758178Y-108310421D01*
X144329302Y-107829534D01*
X144758245Y-107332281D01*
X144891133Y-107127872D01*
X145012859Y-106905649D01*
X145039401Y-106798917D01*
X145021684Y-106796898D01*
X144916182Y-106894454D01*
X144766509Y-107107379D01*
X144522397Y-107445164D01*
X144074166Y-107911176D01*
X143551890Y-108328239D01*
X143002839Y-108664432D01*
X142474281Y-108887835D01*
X142013485Y-108966525D01*
X141803477Y-108935315D01*
X141426551Y-108812749D01*
X141023881Y-108625023D01*
X140403156Y-108287386D01*
X140388749Y-107667388D01*
X142435062Y-107667388D01*
X142470298Y-107697058D01*
X142614669Y-107676666D01*
X142913526Y-107595546D01*
X143094583Y-107526312D01*
X143511012Y-107259689D01*
X143904863Y-106881747D01*
X144234592Y-106443775D01*
X144458658Y-105997065D01*
X144535520Y-105592907D01*
X144519744Y-105463526D01*
X144473841Y-105505478D01*
X144381985Y-105734350D01*
X144369766Y-105767064D01*
X144026971Y-106424670D01*
X143845864Y-106633744D01*
X143556018Y-106968349D01*
X142995768Y-107352732D01*
X142746024Y-107479168D01*
X142521564Y-107603613D01*
X142435062Y-107667388D01*
X140388749Y-107667388D01*
X140386012Y-107549626D01*
X140383268Y-107484730D01*
X141299781Y-107484730D01*
X141472827Y-107454968D01*
X141833582Y-107335358D01*
X141861135Y-107325059D01*
X142216690Y-107162104D01*
X142536671Y-106968189D01*
X142767760Y-106779880D01*
X142856639Y-106633744D01*
X142787596Y-106606222D01*
X142619502Y-106696579D01*
X142438172Y-106812443D01*
X142116982Y-106993459D01*
X141750000Y-107183625D01*
X141529532Y-107297805D01*
X141317623Y-107430418D01*
X141299781Y-107484730D01*
X140383268Y-107484730D01*
X140378718Y-107377106D01*
X140269660Y-106720140D01*
X140013894Y-106136108D01*
X139584140Y-105557227D01*
X139515073Y-105484749D01*
X139254615Y-105266050D01*
X138944824Y-105056854D01*
X138639089Y-104887822D01*
X138390797Y-104789617D01*
X138253335Y-104792902D01*
X138255488Y-104819238D01*
X138381190Y-104911844D01*
X138628531Y-105027525D01*
X138706506Y-105061241D01*
X139198741Y-105388519D01*
X139641128Y-105865148D01*
X139999465Y-106438105D01*
X140239550Y-107054364D01*
X140327178Y-107660903D01*
X140320628Y-107816534D01*
X140248773Y-108033229D01*
X140076340Y-108076527D01*
X139776954Y-107960804D01*
X139661524Y-107899496D01*
X139414709Y-107723601D01*
X139302420Y-107512591D01*
X139274850Y-107190006D01*
X139252476Y-106967228D01*
X139070887Y-106481904D01*
X138740667Y-106034507D01*
X138302662Y-105673251D01*
X137797718Y-105446352D01*
X137739086Y-105452977D01*
X137838630Y-105541930D01*
X138078015Y-105694506D01*
X138276608Y-105819278D01*
X138737293Y-106212441D01*
X139019297Y-106663231D01*
X139146379Y-107205241D01*
X139196780Y-107729776D01*
X138687102Y-107371252D01*
X138589263Y-107299993D01*
X138251243Y-106983591D01*
X138088911Y-106671146D01*
X138077150Y-106631178D01*
X137868965Y-106301300D01*
X137505992Y-106030937D01*
X137037866Y-105858467D01*
X136828222Y-105779005D01*
X136759656Y-105644243D01*
X136886540Y-105479961D01*
X137204602Y-105300458D01*
X137406587Y-105199442D01*
X137910462Y-104856828D01*
X138357108Y-104436141D01*
X138664059Y-104014655D01*
X139067241Y-104014655D01*
X139161854Y-104101616D01*
X139167922Y-104103886D01*
X139349160Y-104218277D01*
X139568166Y-104409663D01*
X139580356Y-104422005D01*
X139744132Y-104661748D01*
X139763667Y-104936352D01*
X139644393Y-105310000D01*
X139617572Y-105419050D01*
X139686146Y-105494439D01*
X139817193Y-105409808D01*
X139919940Y-105184561D01*
X139966637Y-104891310D01*
X139936800Y-104602918D01*
X139861947Y-104449988D01*
X139674739Y-104233036D01*
X139443885Y-104051542D01*
X139227533Y-103948788D01*
X139083832Y-103968052D01*
X139067241Y-104014655D01*
X138664059Y-104014655D01*
X138672995Y-104002385D01*
X138863210Y-103650041D01*
X138567601Y-104016783D01*
X138417716Y-104195126D01*
X137952672Y-104663053D01*
X137491217Y-105011670D01*
X137065917Y-105219126D01*
X136709336Y-105263572D01*
X136586666Y-105203736D01*
X136469431Y-105027336D01*
X136422462Y-104809381D01*
X136458201Y-104624143D01*
X136589094Y-104545892D01*
X136658315Y-104539449D01*
X136954789Y-104427629D01*
X137258671Y-104221671D01*
X137477703Y-103980295D01*
X137614636Y-103755435D01*
X137363646Y-103979402D01*
X137163576Y-104141538D01*
X136794999Y-104360313D01*
X136487219Y-104440498D01*
X136436015Y-104432310D01*
X136348091Y-104316006D01*
X136322199Y-104032172D01*
X136357733Y-103653914D01*
X136493497Y-103208988D01*
X139480433Y-103208988D01*
X139589966Y-103268322D01*
X139884939Y-103375726D01*
X140400308Y-103615721D01*
X140834713Y-103977117D01*
X141093434Y-104407134D01*
X141168185Y-104881438D01*
X141165838Y-104891310D01*
X141050681Y-105375695D01*
X140732639Y-105865573D01*
X140559243Y-106100394D01*
X140530356Y-106222876D01*
X140636036Y-106202351D01*
X140858358Y-106017202D01*
X141023005Y-105806134D01*
X141215279Y-105345920D01*
X141288079Y-104824588D01*
X141257028Y-104527520D01*
X141810442Y-104527520D01*
X141846707Y-104601599D01*
X142013485Y-104545892D01*
X142081945Y-104484478D01*
X142087722Y-104374209D01*
X142031731Y-104351897D01*
X141887012Y-104419419D01*
X141810442Y-104527520D01*
X141257028Y-104527520D01*
X141234844Y-104315288D01*
X141049016Y-103891166D01*
X140919542Y-103742611D01*
X140537000Y-103461023D01*
X140080389Y-103258457D01*
X139642116Y-103181523D01*
X139540041Y-103184689D01*
X139480433Y-103208988D01*
X136493497Y-103208988D01*
X136568137Y-102964378D01*
X136664960Y-102775248D01*
X140729604Y-102775248D01*
X140764638Y-102822927D01*
X140990428Y-102915761D01*
X140993083Y-102916737D01*
X141609673Y-103239172D01*
X142061878Y-103685692D01*
X142340180Y-104243235D01*
X142359138Y-104374209D01*
X142424329Y-104824588D01*
X142435062Y-104898735D01*
X142393727Y-105342003D01*
X142172790Y-105946229D01*
X141764418Y-106457459D01*
X141172338Y-106869877D01*
X141079317Y-106922248D01*
X140940567Y-107026666D01*
X140959543Y-107070045D01*
X140975705Y-107070207D01*
X141329967Y-106980510D01*
X141712477Y-106743070D01*
X142068388Y-106400496D01*
X142342853Y-105995399D01*
X142385604Y-105907373D01*
X142582096Y-105270950D01*
X142606800Y-104623525D01*
X142463392Y-104014211D01*
X142155547Y-103492120D01*
X141937912Y-103277324D01*
X141561070Y-103012972D01*
X141167152Y-102827116D01*
X140831999Y-102761617D01*
X140729604Y-102775248D01*
X136664960Y-102775248D01*
X136967826Y-102183639D01*
X137303073Y-101623144D01*
X137670497Y-101872485D01*
X138018967Y-102045093D01*
X138418442Y-102121431D01*
X138682746Y-102090696D01*
X139070321Y-101944655D01*
X139085626Y-101933274D01*
X141446274Y-101933274D01*
X141551762Y-102013718D01*
X141855394Y-102163917D01*
X142326806Y-102414519D01*
X142903457Y-102873847D01*
X143297404Y-103424168D01*
X143382430Y-103628252D01*
X143508417Y-104102272D01*
X143583521Y-104623525D01*
X143587234Y-104649292D01*
X143607292Y-104874331D01*
X143638079Y-105162980D01*
X143664378Y-105270647D01*
X143693820Y-105216614D01*
X143734039Y-105020166D01*
X143771412Y-104587552D01*
X143676099Y-103916966D01*
X143416306Y-103283422D01*
X143016990Y-102727814D01*
X142503107Y-102291042D01*
X141899614Y-102014000D01*
X141826284Y-101993345D01*
X141538069Y-101925507D01*
X141446274Y-101933274D01*
X139085626Y-101933274D01*
X139379986Y-101714379D01*
X139545319Y-101440032D01*
X139594982Y-101261676D01*
X139631257Y-101173278D01*
X139653134Y-101181724D01*
X139810012Y-101256712D01*
X140063693Y-101384066D01*
X140239879Y-101464685D01*
X140788340Y-101595186D01*
X141294545Y-101532664D01*
X141733898Y-101278672D01*
X141751531Y-101263280D01*
X142046667Y-101049662D01*
X142311815Y-100982067D01*
X142607283Y-101060866D01*
X142993380Y-101286431D01*
X143566592Y-101770206D01*
X144075391Y-102433111D01*
X144445823Y-103198442D01*
X144649237Y-104018921D01*
X144724633Y-104587552D01*
X144726096Y-104598589D01*
X144739832Y-104071618D01*
X144688542Y-103612447D01*
X145628680Y-103612447D01*
X145703220Y-103870915D01*
X145768984Y-104085070D01*
X145868299Y-104454603D01*
X145967621Y-104862902D01*
X146124738Y-105547137D01*
X146081636Y-104967469D01*
X146059882Y-104769516D01*
X145973427Y-104318378D01*
X145857214Y-103935503D01*
X145831822Y-103873543D01*
X145710740Y-103621210D01*
X145637106Y-103531695D01*
X145628680Y-103612447D01*
X144688542Y-103612447D01*
X144685036Y-103581059D01*
X144475533Y-102968417D01*
X144141344Y-102354141D01*
X143715988Y-101789172D01*
X143232982Y-101324449D01*
X142725847Y-101010911D01*
X142586483Y-100950010D01*
X142352180Y-100846000D01*
X142245493Y-100796123D01*
X142240810Y-100719656D01*
X142248408Y-100679385D01*
X143910581Y-100679385D01*
X143912648Y-100684139D01*
X144012283Y-100779437D01*
X144231717Y-100962479D01*
X144529671Y-101198644D01*
X144661290Y-101306260D01*
X145153313Y-101796380D01*
X145557264Y-102330067D01*
X145562708Y-102338736D01*
X145889683Y-102844325D01*
X146129644Y-103182686D01*
X146277999Y-103347853D01*
X146330152Y-103333859D01*
X146312137Y-103238040D01*
X146187680Y-102965646D01*
X145972208Y-102609738D01*
X145697939Y-102217960D01*
X145397091Y-101837962D01*
X145101883Y-101517389D01*
X145044334Y-101462088D01*
X144743341Y-101195359D01*
X144439285Y-100955458D01*
X144172350Y-100770650D01*
X143982720Y-100669204D01*
X143910581Y-100679385D01*
X142248408Y-100679385D01*
X142264592Y-100593610D01*
X143699792Y-100593610D01*
X143752490Y-100646307D01*
X143805187Y-100593610D01*
X143752490Y-100540913D01*
X143699792Y-100593610D01*
X142264592Y-100593610D01*
X142278688Y-100518897D01*
X142311632Y-100412157D01*
X142330904Y-100389725D01*
X144756372Y-100389725D01*
X144790292Y-100458349D01*
X144946244Y-100593610D01*
X144964523Y-100609464D01*
X145293822Y-100885359D01*
X145818532Y-101403903D01*
X146290256Y-101959278D01*
X146644569Y-102479762D01*
X146771679Y-102720313D01*
X146996403Y-103333859D01*
X147094236Y-103600964D01*
X147257085Y-104567669D01*
X147255445Y-105547137D01*
X147255398Y-105575442D01*
X147252422Y-105592907D01*
X147084351Y-106579295D01*
X147029829Y-106794986D01*
X147004467Y-106917261D01*
X146972534Y-107071213D01*
X146976996Y-107182243D01*
X147041461Y-107151466D01*
X147073826Y-107103497D01*
X147165193Y-106867617D01*
X147219519Y-106670250D01*
X148097544Y-106670250D01*
X148175580Y-106778727D01*
X148363797Y-106988331D01*
X148626971Y-107259494D01*
X148831888Y-107461471D01*
X149048324Y-107659380D01*
X149059138Y-107669268D01*
X149158955Y-107726556D01*
X149140315Y-107636678D01*
X149012194Y-107402979D01*
X148998214Y-107380691D01*
X148840590Y-107193044D01*
X148618763Y-106984906D01*
X148385690Y-106799014D01*
X148194329Y-106678106D01*
X148097638Y-106664920D01*
X148097544Y-106670250D01*
X147219519Y-106670250D01*
X147265279Y-106504006D01*
X147294108Y-106368202D01*
X149242168Y-106368202D01*
X149335597Y-106510345D01*
X149585744Y-106785518D01*
X149770341Y-106980133D01*
X150018439Y-107251549D01*
X150183400Y-107444232D01*
X150239511Y-107504477D01*
X150238479Y-107446590D01*
X150135950Y-107215971D01*
X150083046Y-107116681D01*
X149856577Y-106794338D01*
X149614332Y-106557257D01*
X149524058Y-106494226D01*
X149305105Y-106361894D01*
X149242168Y-106368202D01*
X147294108Y-106368202D01*
X147357605Y-106069089D01*
X147376645Y-105964132D01*
X147450746Y-105490418D01*
X147453448Y-105450749D01*
X147737331Y-105450749D01*
X147806161Y-105592350D01*
X147923880Y-105725132D01*
X148147622Y-105810622D01*
X148276965Y-105803761D01*
X148328354Y-105778723D01*
X148324809Y-105776213D01*
X148202366Y-105696612D01*
X147986892Y-105560452D01*
X147950961Y-105537966D01*
X147774295Y-105434616D01*
X147737331Y-105450749D01*
X147453448Y-105450749D01*
X147476424Y-105113430D01*
X147455281Y-104741981D01*
X147391131Y-104300135D01*
X147813518Y-104300135D01*
X147845691Y-104684855D01*
X147976185Y-104941296D01*
X148239281Y-105129458D01*
X148573328Y-105248460D01*
X148986723Y-105245318D01*
X149329507Y-105077640D01*
X149563312Y-104767033D01*
X149649774Y-104335103D01*
X149641230Y-104140458D01*
X149559918Y-103866983D01*
X149356458Y-103638855D01*
X149240550Y-103551957D01*
X148858584Y-103406017D01*
X148476842Y-103428460D01*
X148143380Y-103598692D01*
X147906254Y-103896115D01*
X147813518Y-104300135D01*
X147391131Y-104300135D01*
X147388917Y-104284884D01*
X147314624Y-103768623D01*
X147246933Y-103163276D01*
X147205025Y-102628978D01*
X147199337Y-102485621D01*
X147235479Y-101809231D01*
X147374710Y-101295514D01*
X147604259Y-100952212D01*
X147911352Y-100787065D01*
X148283214Y-100807815D01*
X148707073Y-101022205D01*
X149170155Y-101437975D01*
X149425945Y-101728654D01*
X149750292Y-102182193D01*
X149948671Y-102633878D01*
X150047404Y-103152821D01*
X150072810Y-103808132D01*
X150070153Y-104046500D01*
X150054971Y-104335103D01*
X150044098Y-104541781D01*
X149985118Y-104893732D01*
X149886586Y-105150124D01*
X149655898Y-105449769D01*
X149245182Y-105714087D01*
X148922966Y-105778723D01*
X148763947Y-105810622D01*
X148755687Y-105810657D01*
X148534233Y-105842482D01*
X148442531Y-105916016D01*
X148445438Y-105934165D01*
X148564008Y-106004243D01*
X148810975Y-106015263D01*
X149124052Y-105970016D01*
X149440952Y-105871291D01*
X149518810Y-105821918D01*
X150538098Y-105821918D01*
X150584727Y-105987515D01*
X150755957Y-106304518D01*
X150774919Y-106334715D01*
X150973815Y-106587420D01*
X151168613Y-106751588D01*
X151223426Y-106777303D01*
X151273777Y-106762257D01*
X151216012Y-106625682D01*
X151042510Y-106342879D01*
X150952481Y-106207680D01*
X150741309Y-105934589D01*
X150596737Y-105805139D01*
X150538098Y-105821918D01*
X149518810Y-105821918D01*
X149717274Y-105696063D01*
X150015729Y-105298774D01*
X150076979Y-105183910D01*
X150227985Y-104938729D01*
X150338120Y-104810308D01*
X150389840Y-104755588D01*
X150434857Y-104598589D01*
X151393568Y-104598589D01*
X151446265Y-104651286D01*
X151498963Y-104598589D01*
X151446265Y-104545892D01*
X151393568Y-104598589D01*
X150434857Y-104598589D01*
X150445021Y-104563141D01*
X150449062Y-104516824D01*
X150576079Y-104273668D01*
X150835362Y-104044769D01*
X151164525Y-103874725D01*
X151501180Y-103808132D01*
X151568709Y-103808159D01*
X151851103Y-103817247D01*
X152040024Y-103866315D01*
X152154260Y-103989524D01*
X152212597Y-104221037D01*
X152233822Y-104595015D01*
X152233841Y-104598589D01*
X152236722Y-105145619D01*
X152236702Y-105182395D01*
X152229490Y-105726006D01*
X152207717Y-106081576D01*
X152169110Y-106270302D01*
X152111392Y-106313382D01*
X152024787Y-106266975D01*
X151812087Y-106033918D01*
X151609711Y-105668718D01*
X151449783Y-105224256D01*
X151307022Y-104703983D01*
X151297598Y-105109632D01*
X151301060Y-105253597D01*
X151404551Y-105727582D01*
X151624740Y-106130092D01*
X151928965Y-106394647D01*
X151935799Y-106398200D01*
X152122288Y-106530452D01*
X152218983Y-106722123D01*
X152224593Y-106762257D01*
X152264636Y-107048718D01*
X152266729Y-107065948D01*
X152273639Y-106992144D01*
X152280327Y-106728381D01*
X152286673Y-106290689D01*
X152292555Y-105695100D01*
X152297854Y-104957644D01*
X152302448Y-104094355D01*
X152306218Y-103121262D01*
X152309042Y-102054397D01*
X152310800Y-100909792D01*
X152310922Y-100770615D01*
X152310511Y-99589313D01*
X152307624Y-98456354D01*
X152305980Y-98116846D01*
X152793166Y-98116846D01*
X152793179Y-98888167D01*
X152796020Y-99906155D01*
X152801194Y-100770615D01*
X152801811Y-100873666D01*
X152810234Y-101763980D01*
X152820968Y-102550381D01*
X152833692Y-103206150D01*
X152848088Y-103704569D01*
X152863835Y-104018921D01*
X152877007Y-104135541D01*
X152892855Y-104108985D01*
X152906981Y-103888832D01*
X152919176Y-103484812D01*
X152929234Y-102906659D01*
X152933638Y-102482774D01*
X153093052Y-102482774D01*
X153096079Y-103279480D01*
X153106440Y-103986271D01*
X153109538Y-104111782D01*
X153117454Y-104309815D01*
X153124531Y-104312539D01*
X153130503Y-104131242D01*
X153135105Y-103777211D01*
X153138071Y-103261734D01*
X153139137Y-102596099D01*
X153139009Y-102341338D01*
X153137272Y-101723330D01*
X153133710Y-101256612D01*
X153128589Y-100953083D01*
X153122177Y-100824643D01*
X153114739Y-100883191D01*
X153106542Y-101140628D01*
X153097357Y-101702237D01*
X153093052Y-102482774D01*
X152933638Y-102482774D01*
X152936949Y-102164106D01*
X152942112Y-101266886D01*
X152944518Y-100224730D01*
X152944394Y-99568550D01*
X152941538Y-98548969D01*
X152935719Y-97573009D01*
X152927269Y-96668530D01*
X152920526Y-96163259D01*
X153093248Y-96163259D01*
X153096677Y-97014548D01*
X153106391Y-97767738D01*
X153112608Y-98029562D01*
X153119594Y-98162637D01*
X153125787Y-98104224D01*
X153130976Y-97864889D01*
X153134950Y-97455204D01*
X153137497Y-96885735D01*
X153138407Y-96167054D01*
X153137827Y-95569936D01*
X153135592Y-94966210D01*
X153131878Y-94517918D01*
X153126897Y-94236133D01*
X153120861Y-94131924D01*
X153113982Y-94216362D01*
X153106472Y-94500518D01*
X153105232Y-94565016D01*
X153096101Y-95313529D01*
X153093248Y-96163259D01*
X152920526Y-96163259D01*
X152916524Y-95863395D01*
X152903817Y-95185464D01*
X152889480Y-94662597D01*
X152873848Y-94322655D01*
X152859480Y-94180262D01*
X152844177Y-94204064D01*
X152830503Y-94422151D01*
X152818647Y-94825665D01*
X152816451Y-94955020D01*
X152808797Y-95405749D01*
X152801141Y-96153546D01*
X152795868Y-97060197D01*
X152793166Y-98116846D01*
X152305980Y-98116846D01*
X152302471Y-97392043D01*
X152295259Y-96416685D01*
X152286196Y-95550587D01*
X152277541Y-94955020D01*
X152447510Y-94955020D01*
X152450653Y-95605224D01*
X152463185Y-96271886D01*
X152484768Y-96762256D01*
X152514856Y-97064879D01*
X152552904Y-97168298D01*
X152583867Y-97102307D01*
X152615612Y-96839134D01*
X152638963Y-96385892D01*
X152653374Y-95754036D01*
X152658299Y-94955020D01*
X152655156Y-94304817D01*
X152642624Y-93638155D01*
X152621041Y-93147785D01*
X152590953Y-92845162D01*
X152552904Y-92741742D01*
X152521942Y-92807734D01*
X152490197Y-93070907D01*
X152466846Y-93524149D01*
X152452435Y-94156005D01*
X152447510Y-94955020D01*
X152277541Y-94955020D01*
X152275492Y-94814053D01*
X152263354Y-94227390D01*
X152249992Y-93810902D01*
X152235613Y-93584896D01*
X152232055Y-93559624D01*
X152217805Y-93569038D01*
X152206657Y-93768735D01*
X152198706Y-94141940D01*
X152194048Y-94671877D01*
X152192780Y-95341771D01*
X152194996Y-96134846D01*
X152200793Y-97034325D01*
X152210266Y-98023434D01*
X152210713Y-98064181D01*
X152210906Y-98081794D01*
X152220688Y-99106691D01*
X152227266Y-100072216D01*
X152229634Y-100686642D01*
X152230675Y-100956743D01*
X152230915Y-101636618D01*
X152230951Y-101738643D01*
X152228130Y-102396287D01*
X152223051Y-102838066D01*
X152222247Y-102908048D01*
X152213337Y-103252297D01*
X152201435Y-103407406D01*
X152164364Y-103525090D01*
X152080039Y-103615328D01*
X151903786Y-103640727D01*
X151576894Y-103621405D01*
X151322296Y-103605018D01*
X151075758Y-103626943D01*
X150882851Y-103731259D01*
X150652316Y-103950445D01*
X150286929Y-104325857D01*
X150272807Y-103609210D01*
X150239648Y-103257229D01*
X150579638Y-103257229D01*
X150677346Y-103215455D01*
X150919294Y-103063224D01*
X150951872Y-103043568D01*
X151290314Y-102910104D01*
X151657054Y-102849380D01*
X152078631Y-102838066D01*
X151739609Y-102729191D01*
X151625007Y-102700998D01*
X151236827Y-102707756D01*
X150884502Y-102844392D01*
X150648073Y-103084828D01*
X150592552Y-103191224D01*
X150579638Y-103257229D01*
X150239648Y-103257229D01*
X150219291Y-103041144D01*
X149981972Y-102268875D01*
X149545902Y-101547241D01*
X149346828Y-101325929D01*
X149024586Y-101043844D01*
X148673359Y-100791708D01*
X148351257Y-100610429D01*
X148116386Y-100540913D01*
X148068195Y-100533203D01*
X147855410Y-100423321D01*
X147615592Y-100224730D01*
X147436919Y-100065124D01*
X147183921Y-99944231D01*
X146843377Y-99922900D01*
X146691996Y-99930771D01*
X146574196Y-99952537D01*
X146650830Y-99980499D01*
X146907478Y-100032539D01*
X147317818Y-100180818D01*
X147549830Y-100372973D01*
X147592751Y-100597196D01*
X147435816Y-100841677D01*
X147422218Y-100855226D01*
X147232655Y-101137597D01*
X147164656Y-101332752D01*
X147116484Y-101471002D01*
X147115764Y-101475107D01*
X147048334Y-101846881D01*
X146981446Y-102198056D01*
X146914315Y-102537772D01*
X146231568Y-101687497D01*
X146122997Y-101553360D01*
X145716628Y-101079064D01*
X145383043Y-100747566D01*
X145090294Y-100529941D01*
X144806431Y-100397266D01*
X144756372Y-100389725D01*
X142330904Y-100389725D01*
X142394092Y-100316177D01*
X142567006Y-100286661D01*
X142889834Y-100302561D01*
X142989800Y-100307737D01*
X143592309Y-100230132D01*
X144034769Y-100013942D01*
X145782755Y-100013942D01*
X145807216Y-100063621D01*
X145945029Y-100225904D01*
X146167556Y-100461867D01*
X146352288Y-100657673D01*
X146608039Y-100949950D01*
X146780526Y-101173278D01*
X146804204Y-101208290D01*
X146923079Y-101354684D01*
X146954352Y-101332752D01*
X146899376Y-101162395D01*
X146759500Y-100863517D01*
X146722566Y-100798563D01*
X146516765Y-100535989D01*
X146250296Y-100281829D01*
X145985008Y-100089880D01*
X145782755Y-100013942D01*
X144034769Y-100013942D01*
X144106915Y-99978691D01*
X144425683Y-99660003D01*
X147465954Y-99660003D01*
X147580451Y-99682392D01*
X147882350Y-99691078D01*
X148301058Y-99723194D01*
X148901658Y-99902081D01*
X149367108Y-100241304D01*
X149702611Y-100745290D01*
X149913373Y-101418467D01*
X150000349Y-101858340D01*
X150011896Y-101406216D01*
X150011078Y-101300864D01*
X149898802Y-100754285D01*
X149629402Y-100269396D01*
X149236264Y-99910572D01*
X149147901Y-99854286D01*
X148945104Y-99708484D01*
X148864108Y-99622140D01*
X148892774Y-99606561D01*
X149072036Y-99603191D01*
X149361231Y-99631852D01*
X149837273Y-99753902D01*
X150360332Y-100054195D01*
X150754611Y-100483781D01*
X150999613Y-101009518D01*
X151074843Y-101598263D01*
X150959806Y-102216872D01*
X150894643Y-102475568D01*
X150906122Y-102608408D01*
X150975973Y-102583059D01*
X151083688Y-102373579D01*
X151111469Y-102298129D01*
X151243164Y-101636618D01*
X151182020Y-101001160D01*
X150941047Y-100424458D01*
X150533254Y-99939215D01*
X150095886Y-99658011D01*
X151063388Y-99658011D01*
X151234035Y-99820849D01*
X151481967Y-100084956D01*
X151671240Y-100400517D01*
X151763249Y-100602986D01*
X151849223Y-100736134D01*
X151872201Y-100686642D01*
X151819358Y-100450209D01*
X151754657Y-100248081D01*
X151560611Y-99852473D01*
X151335179Y-99657461D01*
X151273253Y-99634769D01*
X151078336Y-99592956D01*
X151063388Y-99658011D01*
X150095886Y-99658011D01*
X149971651Y-99578135D01*
X149640663Y-99459787D01*
X149273865Y-99392983D01*
X148975714Y-99402198D01*
X148808286Y-99492027D01*
X148793724Y-99508437D01*
X148613959Y-99555997D01*
X148301443Y-99537497D01*
X148222964Y-99527984D01*
X147874496Y-99525461D01*
X147599377Y-99578457D01*
X147515523Y-99614622D01*
X147465954Y-99660003D01*
X144425683Y-99660003D01*
X144507199Y-99578507D01*
X144766743Y-99054668D01*
X144838505Y-98571211D01*
X145414545Y-98571211D01*
X145529059Y-98692696D01*
X145777162Y-98697727D01*
X146176556Y-98579571D01*
X146437158Y-98487907D01*
X147318618Y-98258188D01*
X148285329Y-98129838D01*
X149391079Y-98094745D01*
X149401557Y-98094823D01*
X149929944Y-98101219D01*
X150399888Y-98111296D01*
X150760610Y-98123685D01*
X150961325Y-98137019D01*
X151106316Y-98138719D01*
X151244520Y-98064181D01*
X151214012Y-97941696D01*
X151005827Y-97832587D01*
X150908662Y-97812413D01*
X150549491Y-97776614D01*
X150055945Y-97758038D01*
X149481415Y-97755790D01*
X148879292Y-97768977D01*
X148302968Y-97796706D01*
X147805836Y-97838083D01*
X147441286Y-97892217D01*
X147332541Y-97915859D01*
X146692542Y-98068105D01*
X146154313Y-98218617D01*
X145744284Y-98358541D01*
X145488885Y-98479024D01*
X145414545Y-98571211D01*
X144838505Y-98571211D01*
X144859129Y-98432265D01*
X144848975Y-98248875D01*
X144754425Y-97879798D01*
X144543094Y-97502346D01*
X144193696Y-97083097D01*
X143684946Y-96588630D01*
X143254439Y-96227583D01*
X142549220Y-95784698D01*
X141810647Y-95515071D01*
X140991794Y-95397956D01*
X140896823Y-95393250D01*
X140460167Y-95383213D01*
X140090259Y-95392026D01*
X139858806Y-95418395D01*
X139639483Y-95491515D01*
X139595282Y-95559100D01*
X139741636Y-95611287D01*
X140068121Y-95644574D01*
X140564315Y-95655458D01*
X140877325Y-95658251D01*
X141363092Y-95688877D01*
X141759478Y-95762637D01*
X142145448Y-95891309D01*
X142774446Y-96205402D01*
X143378372Y-96634852D01*
X143900203Y-97134031D01*
X144298919Y-97663555D01*
X144533501Y-98184045D01*
X144578309Y-98435306D01*
X144528665Y-98925295D01*
X144318990Y-99363372D01*
X143983226Y-99718678D01*
X143555315Y-99960354D01*
X143069198Y-100057541D01*
X142558818Y-99979379D01*
X142140677Y-99835318D01*
X142078370Y-100224960D01*
X142075600Y-100241361D01*
X141966805Y-100590258D01*
X141799192Y-100890309D01*
X141573944Y-101101713D01*
X141170899Y-101276079D01*
X140726114Y-101301503D01*
X140293989Y-101186298D01*
X139928926Y-100938780D01*
X139685326Y-100567261D01*
X139647797Y-100483298D01*
X139518735Y-100342724D01*
X139413795Y-100391107D01*
X139381855Y-100619958D01*
X139391785Y-100815970D01*
X139374794Y-101125394D01*
X139285459Y-101342811D01*
X139099755Y-101547190D01*
X138834953Y-101726238D01*
X138417378Y-101805643D01*
X138385371Y-101805395D01*
X138165871Y-101779917D01*
X137961974Y-101690727D01*
X137721469Y-101506841D01*
X137392145Y-101197279D01*
X137384615Y-101189898D01*
X136964764Y-100714636D01*
X136726209Y-100272633D01*
X136654026Y-99821323D01*
X136733291Y-99318141D01*
X136746269Y-99270280D01*
X136804271Y-98981567D01*
X136773214Y-98864627D01*
X136649296Y-98900557D01*
X136612104Y-98928085D01*
X136471404Y-99169165D01*
X136412592Y-99535719D01*
X136429976Y-99972665D01*
X136517861Y-100424922D01*
X136670553Y-100837406D01*
X136882358Y-101155035D01*
X137150238Y-101436763D01*
X136935940Y-101699243D01*
X136841344Y-101827387D01*
X136641288Y-102139960D01*
X136442956Y-102489699D01*
X136348864Y-102677242D01*
X136251730Y-102928999D01*
X136196279Y-103203588D01*
X136171580Y-103563597D01*
X136166705Y-104071618D01*
X136168987Y-104358266D01*
X136187042Y-104797085D01*
X136232981Y-105128589D01*
X136318634Y-105421185D01*
X136455833Y-105743276D01*
X136619960Y-106141371D01*
X136691489Y-106464857D01*
X136676992Y-106770812D01*
X136663396Y-106858702D01*
X136650332Y-107082246D01*
X136725335Y-107187251D01*
X136924931Y-107243326D01*
X137074332Y-107290459D01*
X137276444Y-107455093D01*
X137465363Y-107773174D01*
X137542833Y-107935395D01*
X137650196Y-108172925D01*
X137692324Y-108286143D01*
X137678543Y-108301376D01*
X137527928Y-108366454D01*
X137264774Y-108447085D01*
X137124498Y-108495860D01*
X136760321Y-108686489D01*
X136427892Y-108932019D01*
X136018561Y-109301825D01*
X135800717Y-108596525D01*
X135761982Y-108466331D01*
X135631922Y-107981899D01*
X135495885Y-107419942D01*
X135377692Y-106877272D01*
X135136207Y-105496963D01*
X134972611Y-103939974D01*
X134949202Y-102448176D01*
X135069664Y-100980763D01*
X135337682Y-99496929D01*
X135756940Y-97955870D01*
X136331120Y-96316780D01*
X136396546Y-96145023D01*
X136647069Y-95471761D01*
X136925443Y-94704808D01*
X137202185Y-93926003D01*
X137246015Y-93799521D01*
X139438227Y-93799521D01*
X139583273Y-94045861D01*
X139872300Y-94310631D01*
X140274481Y-94560362D01*
X140330640Y-94587623D01*
X140819175Y-94740315D01*
X141433817Y-94819220D01*
X141652174Y-94828969D01*
X142040535Y-94818557D01*
X142357714Y-94750099D01*
X142698548Y-94607740D01*
X142712683Y-94600881D01*
X143107368Y-94359773D01*
X143487744Y-94046130D01*
X143811648Y-93704252D01*
X144036911Y-93378434D01*
X144121369Y-93112977D01*
X144120476Y-93077926D01*
X144051919Y-92883710D01*
X143897035Y-92853233D01*
X143688105Y-92979554D01*
X143457407Y-93255733D01*
X143202694Y-93572415D01*
X142680205Y-93962678D01*
X142003352Y-94217739D01*
X141398771Y-94272039D01*
X140781578Y-94128334D01*
X140201616Y-93787534D01*
X140094810Y-93705953D01*
X139780232Y-93520093D01*
X139566909Y-93503657D01*
X139439624Y-93653977D01*
X139438227Y-93799521D01*
X137246015Y-93799521D01*
X137447810Y-93217185D01*
X137498107Y-93070827D01*
X137731382Y-92412902D01*
X138016399Y-91633655D01*
X138331339Y-90791582D01*
X138654385Y-89945179D01*
X138963718Y-89152941D01*
X139048077Y-88938457D01*
X153308706Y-88938457D01*
X153369693Y-89227876D01*
X153631779Y-89509969D01*
X153723575Y-89567639D01*
X154113845Y-89703120D01*
X154592648Y-89764194D01*
X155075401Y-89744931D01*
X155477521Y-89639399D01*
X155684432Y-89521185D01*
X155919906Y-89270868D01*
X155989063Y-88995960D01*
X155873744Y-88737783D01*
X155848768Y-88711657D01*
X155507519Y-88495352D01*
X155045709Y-88362518D01*
X154532291Y-88319564D01*
X154036218Y-88372897D01*
X153626441Y-88528927D01*
X153448964Y-88668456D01*
X153308706Y-88938457D01*
X139048077Y-88938457D01*
X139147413Y-88685893D01*
X139391455Y-88055075D01*
X139584497Y-87544698D01*
X148271173Y-87544698D01*
X148412990Y-87876436D01*
X148456744Y-87929817D01*
X148747072Y-88134637D01*
X149089847Y-88210950D01*
X149415784Y-88154123D01*
X149655596Y-87959523D01*
X149708518Y-87866560D01*
X149798070Y-87482937D01*
X149789284Y-87441674D01*
X160347588Y-87441674D01*
X160350735Y-87482937D01*
X160374224Y-87790961D01*
X160562863Y-88104398D01*
X160625162Y-88159265D01*
X160941175Y-88291461D01*
X161288016Y-88269546D01*
X161607633Y-88118079D01*
X161841974Y-87861620D01*
X161932987Y-87524730D01*
X161904119Y-87351441D01*
X161723370Y-87049175D01*
X161432006Y-86823150D01*
X161094625Y-86734273D01*
X161022706Y-86737812D01*
X160693529Y-86859188D01*
X160461257Y-87112446D01*
X160347588Y-87441674D01*
X149789284Y-87441674D01*
X149718016Y-87106968D01*
X149479299Y-86810011D01*
X149366714Y-86739610D01*
X149032918Y-86660872D01*
X148718687Y-86739794D01*
X148461800Y-86938594D01*
X148300036Y-87219490D01*
X148271173Y-87544698D01*
X139584497Y-87544698D01*
X139599715Y-87504463D01*
X139761490Y-87062901D01*
X139866075Y-86759236D01*
X139902768Y-86622312D01*
X139902329Y-86617287D01*
X139801000Y-86498517D01*
X139556475Y-86337170D01*
X139473919Y-86295456D01*
X146985056Y-86295456D01*
X147023038Y-86381444D01*
X147211732Y-86359164D01*
X147532620Y-86225613D01*
X147605344Y-86191123D01*
X148202473Y-86022480D01*
X148817130Y-86025849D01*
X149380881Y-86202100D01*
X149471347Y-86253290D01*
X149807671Y-86504726D01*
X150097665Y-86798849D01*
X150187004Y-86904702D01*
X150378669Y-87075646D01*
X150485815Y-87069715D01*
X150487715Y-87010947D01*
X159514590Y-87010947D01*
X159562414Y-87099777D01*
X159713159Y-87015400D01*
X159974614Y-86757254D01*
X160147564Y-86590609D01*
X160687785Y-86255684D01*
X161298058Y-86099132D01*
X161938136Y-86127326D01*
X162567771Y-86346639D01*
X162780921Y-86444369D01*
X163042160Y-86515912D01*
X163182012Y-86491213D01*
X163174394Y-86379801D01*
X162993223Y-86191206D01*
X162795423Y-86057335D01*
X162277418Y-85847557D01*
X161693582Y-85751739D01*
X161129623Y-85788406D01*
X160894895Y-85848909D01*
X160429157Y-86032694D01*
X160015852Y-86272098D01*
X159706354Y-86534582D01*
X159552042Y-86787604D01*
X159536798Y-86878508D01*
X159514590Y-87010947D01*
X150487715Y-87010947D01*
X150491997Y-86878508D01*
X150351457Y-86622690D01*
X150101778Y-86340400D01*
X149781192Y-86068740D01*
X149427930Y-85844810D01*
X149080225Y-85705711D01*
X148862210Y-85665104D01*
X148347371Y-85656581D01*
X147832455Y-85744890D01*
X147385631Y-85914880D01*
X147075068Y-86151398D01*
X146985056Y-86295456D01*
X139473919Y-86295456D01*
X139218524Y-86166410D01*
X138856030Y-85980339D01*
X138166265Y-85458864D01*
X137612569Y-84786017D01*
X137205681Y-83976615D01*
X136956342Y-83045477D01*
X136904166Y-82669990D01*
X136897862Y-82341191D01*
X136946445Y-81989487D01*
X137055709Y-81526314D01*
X137232970Y-80951938D01*
X137570413Y-80248860D01*
X138028355Y-79673314D01*
X138636439Y-79190762D01*
X139424307Y-78766669D01*
X139572479Y-78702683D01*
X140405149Y-78471867D01*
X141258502Y-78433155D01*
X142099874Y-78577967D01*
X142896598Y-78897722D01*
X143616009Y-79383841D01*
X144225443Y-80027744D01*
X144324481Y-80166214D01*
X144606877Y-80641108D01*
X144844583Y-81152442D01*
X145008956Y-81632921D01*
X145071356Y-82015250D01*
X145081938Y-82180539D01*
X145135142Y-82487554D01*
X145154982Y-82552857D01*
X145202737Y-82619075D01*
X145299479Y-82626112D01*
X145479946Y-82564898D01*
X145778875Y-82426366D01*
X146231002Y-82201446D01*
X146608288Y-82022334D01*
X147239523Y-81749268D01*
X147911516Y-81482223D01*
X148530565Y-81259579D01*
X148823263Y-81166892D01*
X149422405Y-80997903D01*
X150096016Y-80827652D01*
X150797926Y-80666076D01*
X151481966Y-80523109D01*
X152101965Y-80408688D01*
X152611754Y-80332749D01*
X152965163Y-80305228D01*
X153063638Y-80298214D01*
X153370317Y-80157481D01*
X153578388Y-79854891D01*
X153675987Y-79415370D01*
X153651251Y-78863842D01*
X153639458Y-78797578D01*
X153509952Y-78404468D01*
X153317160Y-78080033D01*
X153265515Y-78015689D01*
X153138171Y-77814406D01*
X153119893Y-77700618D01*
X153140329Y-77688617D01*
X153326366Y-77684897D01*
X153636770Y-77740644D01*
X154014374Y-77841164D01*
X154402010Y-77971758D01*
X154742510Y-78117733D01*
X154767004Y-78130163D01*
X155324799Y-78520950D01*
X155807274Y-79057577D01*
X156158499Y-79678397D01*
X156244121Y-79863697D01*
X156397383Y-80119498D01*
X156523726Y-80245061D01*
X156533947Y-80248690D01*
X156715392Y-80299330D01*
X157052130Y-80384242D01*
X157499903Y-80492498D01*
X158014451Y-80613170D01*
X158463017Y-80723658D01*
X159385288Y-80982861D01*
X160348754Y-81288392D01*
X161270375Y-81613259D01*
X162067113Y-81930471D01*
X162081107Y-81936528D01*
X162264637Y-82016316D01*
X162388400Y-82043460D01*
X162474238Y-81987508D01*
X162543993Y-81818007D01*
X162619507Y-81504504D01*
X162722624Y-81016546D01*
X162932546Y-80314258D01*
X163350492Y-79521542D01*
X163921777Y-78861669D01*
X164631381Y-78347718D01*
X165464285Y-77992766D01*
X166405468Y-77809891D01*
X167024245Y-77806745D01*
X167866649Y-77969092D01*
X168668483Y-78305540D01*
X169393989Y-78795486D01*
X170007407Y-79418326D01*
X170472977Y-80153457D01*
X170577630Y-80395633D01*
X170777628Y-81174353D01*
X170817912Y-82005061D01*
X170707216Y-82842165D01*
X170454277Y-83640070D01*
X170067831Y-84353185D01*
X169556613Y-84935917D01*
X169357847Y-85097427D01*
X168920399Y-85401192D01*
X168496628Y-85643746D01*
X168235552Y-85782694D01*
X167986058Y-85943629D01*
X167870002Y-86057481D01*
X167873234Y-86106534D01*
X167935022Y-86331847D01*
X167988287Y-86491213D01*
X168060421Y-86707031D01*
G37*
G36*
X137207994Y-106044154D02*
G01*
X137484433Y-106194921D01*
X137708340Y-106366465D01*
X137924998Y-106596033D01*
X138008506Y-106779314D01*
X137939410Y-106870611D01*
X137765451Y-106848877D01*
X137544091Y-106731994D01*
X137332813Y-106540295D01*
X137245493Y-106432079D01*
X137082727Y-106175937D01*
X137072160Y-106042228D01*
X137207994Y-106044154D01*
G37*
G36*
X166995036Y-96880266D02*
G01*
X167481896Y-96905009D01*
X167733102Y-96919904D01*
X168224394Y-96947735D01*
X168868373Y-96983295D01*
X169632197Y-97024804D01*
X170483023Y-97070479D01*
X171388010Y-97118538D01*
X172314315Y-97167199D01*
X173140794Y-97211825D01*
X173963143Y-97259299D01*
X174700057Y-97304999D01*
X175326515Y-97347231D01*
X175817497Y-97384304D01*
X176147981Y-97414527D01*
X176292946Y-97436206D01*
X176408109Y-97532775D01*
X176477386Y-97773625D01*
X176477386Y-98040218D01*
X175344398Y-97969256D01*
X175092331Y-97951574D01*
X174573837Y-97910123D01*
X173907401Y-97853056D01*
X173128818Y-97783760D01*
X172273882Y-97705617D01*
X171378386Y-97622013D01*
X170478124Y-97536331D01*
X169608891Y-97451956D01*
X168806481Y-97372273D01*
X168106687Y-97300667D01*
X167545304Y-97240520D01*
X167158125Y-97195219D01*
X166893518Y-97150509D01*
X166613496Y-97067961D01*
X166488776Y-96978301D01*
X166485076Y-96961203D01*
X166527341Y-96906096D01*
X166687089Y-96879873D01*
X166995036Y-96880266D01*
G37*
G36*
X170565199Y-96551697D02*
G01*
X171065194Y-96559510D01*
X171469999Y-96573450D01*
X171741114Y-96593652D01*
X171840041Y-96620249D01*
X171824406Y-96676322D01*
X171713256Y-96831350D01*
X171633831Y-96885841D01*
X171423422Y-96912636D01*
X171281391Y-96895050D01*
X170961158Y-96871183D01*
X170501594Y-96843906D01*
X169939225Y-96815378D01*
X169310581Y-96787758D01*
X168709799Y-96759595D01*
X168200994Y-96727383D01*
X167846778Y-96694648D01*
X167665865Y-96663144D01*
X167676971Y-96634626D01*
X167722183Y-96626073D01*
X167984839Y-96599908D01*
X168383299Y-96579072D01*
X168879064Y-96563701D01*
X169433636Y-96553926D01*
X170008514Y-96549880D01*
X170565199Y-96551697D01*
G37*
G36*
X158749247Y-96563836D02*
G01*
X159297049Y-96591425D01*
X159791724Y-96629056D01*
X160193860Y-96673659D01*
X160464043Y-96722164D01*
X160562863Y-96771501D01*
X160560021Y-96778179D01*
X160430652Y-96806876D01*
X160136779Y-96816761D01*
X159717240Y-96809502D01*
X159210869Y-96786769D01*
X158656503Y-96750230D01*
X158092978Y-96701554D01*
X157559129Y-96642411D01*
X156926763Y-96562662D01*
X157717220Y-96549843D01*
X158187730Y-96549359D01*
X158749247Y-96563836D01*
G37*
G36*
X176125245Y-95766484D02*
G01*
X176234567Y-95862755D01*
X176253525Y-96039451D01*
X176134151Y-96171797D01*
X176013920Y-96184976D01*
X175704767Y-96202259D01*
X175232737Y-96222112D01*
X174622448Y-96243670D01*
X173898519Y-96266067D01*
X173085569Y-96288437D01*
X172208217Y-96309914D01*
X171401964Y-96328470D01*
X170564674Y-96347748D01*
X169807146Y-96365198D01*
X169155576Y-96380216D01*
X168636157Y-96392198D01*
X168275083Y-96400541D01*
X168098548Y-96404639D01*
X167987185Y-96403641D01*
X167637255Y-96380603D01*
X167255394Y-96336681D01*
X167199509Y-96328605D01*
X167003344Y-96295964D01*
X166945551Y-96270493D01*
X167044126Y-96247026D01*
X167317066Y-96220398D01*
X167782365Y-96185446D01*
X168212490Y-96156903D01*
X168810220Y-96120874D01*
X169510187Y-96081219D01*
X170257405Y-96041051D01*
X170996888Y-96003484D01*
X171664173Y-95969765D01*
X172478659Y-95926566D01*
X173277998Y-95882259D01*
X173997051Y-95840464D01*
X174570681Y-95804804D01*
X174687958Y-95797339D01*
X175209772Y-95769522D01*
X175652360Y-95754389D01*
X175972069Y-95753018D01*
X176125245Y-95766484D01*
G37*
G36*
X160217152Y-96352940D02*
G01*
X160323254Y-96364623D01*
X160312758Y-96379162D01*
X160122924Y-96389225D01*
X159772407Y-96393129D01*
X159519202Y-96391603D01*
X159260771Y-96383645D01*
X159170062Y-96370388D01*
X159268604Y-96353524D01*
X159368221Y-96346260D01*
X159795275Y-96336992D01*
X160217152Y-96352940D01*
G37*
G36*
X153555415Y-101173894D02*
G01*
X153566059Y-101358238D01*
X153570020Y-101700249D01*
X153568686Y-101913571D01*
X153560683Y-102168118D01*
X153547059Y-102253206D01*
X153529676Y-102148174D01*
X153526044Y-102103849D01*
X153513090Y-101672042D01*
X153529676Y-101252323D01*
X153539950Y-101167878D01*
X153555415Y-101173894D01*
G37*
D10*
%TO.C,SW2*%
X160134500Y-111160000D02*
G75*
G03*
X159934500Y-111160000I-100000J0D01*
G01*
X159934500Y-111160000D02*
G75*
G03*
X160134500Y-111160000I100000J0D01*
G01*
D11*
X156776620Y-116409740D02*
X150782220Y-116409740D01*
X150782220Y-116409740D02*
X150782220Y-110412800D01*
X150782220Y-110412800D02*
X156784240Y-110412800D01*
X156784240Y-110412800D02*
X156784240Y-116407200D01*
X155534500Y-113410000D02*
G75*
G03*
X152034500Y-113410000I-1750000J0D01*
G01*
X152034500Y-113410000D02*
G75*
G03*
X155534500Y-113410000I1750000J0D01*
G01*
D12*
%TO.C,D3*%
X168227500Y-104470000D02*
X165367500Y-104470000D01*
X165367500Y-102550000D02*
X168227500Y-102550000D01*
X168227500Y-102550000D02*
X168227500Y-104470000D01*
%TO.C,D2*%
X155795000Y-109540000D02*
X152935000Y-109540000D01*
X152935000Y-107620000D02*
X155795000Y-107620000D01*
X155795000Y-107620000D02*
X155795000Y-109540000D01*
%TO.C,D1*%
X145685000Y-105730000D02*
X145685000Y-107650000D01*
X142825000Y-105730000D02*
X145685000Y-105730000D01*
X145685000Y-107650000D02*
X142825000Y-107650000D01*
%TD*%
M02*
