%TF.GenerationSoftware,KiCad,Pcbnew,7.0.10*%
%TF.CreationDate,2024-01-29T00:00:28+02:00*%
%TF.ProjectId,RamenTimer_ki7,52616d65-6e54-4696-9d65-725f6b69372e,rev?*%
%TF.SameCoordinates,Original*%
%TF.FileFunction,Profile,NP*%
%FSLAX46Y46*%
G04 Gerber Fmt 4.6, Leading zero omitted, Abs format (unit mm)*
G04 Created by KiCad (PCBNEW 7.0.10) date 2024-01-29 00:00:28*
%MOMM*%
%LPD*%
G01*
G04 APERTURE LIST*
%TA.AperFunction,Profile*%
%ADD10C,0.100000*%
%TD*%
G04 APERTURE END LIST*
D10*
X171230000Y-95100000D02*
X171410000Y-95580000D01*
X170990000Y-94440000D02*
X171230000Y-95100000D01*
X170790000Y-93930000D02*
X170990000Y-94440000D01*
X170640000Y-93510000D02*
X170790000Y-93930000D01*
X170450000Y-92930000D02*
X170640000Y-93510000D01*
X170250000Y-92390000D02*
X170450000Y-92930000D01*
X170070000Y-91860000D02*
X170250000Y-92390000D01*
X169860000Y-91270000D02*
X170070000Y-91860000D01*
X169690000Y-90810000D02*
X169860000Y-91270000D01*
X169510000Y-90350000D02*
X169690000Y-90810000D01*
X169360000Y-89930000D02*
X169510000Y-90350000D01*
X169130000Y-89320000D02*
X169360000Y-89930000D01*
X168950000Y-88870000D02*
X169130000Y-89320000D01*
X168710000Y-88250000D02*
X168950000Y-88870000D01*
X168530000Y-87790000D02*
X168710000Y-88250000D01*
X168370000Y-87350000D02*
X168530000Y-87790000D01*
X168300000Y-87150000D02*
X168370000Y-87350000D01*
X168130000Y-86690000D02*
X168300000Y-87150000D01*
X168000000Y-86330000D02*
X168130000Y-86690000D01*
X167940000Y-86090000D02*
X168000000Y-86330000D01*
X168010000Y-86000000D02*
X167940000Y-86090000D01*
X168300000Y-85830000D02*
X168010000Y-86000000D01*
X168670000Y-85620000D02*
X168300000Y-85830000D01*
X168970000Y-85440000D02*
X168670000Y-85620000D01*
X169300000Y-85220000D02*
X168970000Y-85440000D01*
X169550000Y-85030000D02*
X169300000Y-85220000D01*
X169670000Y-84900000D02*
X169550000Y-85030000D01*
X169860000Y-84690000D02*
X169670000Y-84900000D01*
X170140000Y-84370000D02*
X169860000Y-84690000D01*
X170330000Y-84010000D02*
X170140000Y-84370000D01*
X170530000Y-83640000D02*
X170330000Y-84010000D01*
X170660000Y-83230000D02*
X170530000Y-83640000D01*
X170770000Y-82830000D02*
X170660000Y-83230000D01*
X170830000Y-82440000D02*
X170770000Y-82830000D01*
X170880000Y-81990000D02*
X170830000Y-82440000D01*
X170860000Y-81540000D02*
X170880000Y-81990000D01*
X170840000Y-81160000D02*
X170860000Y-81540000D01*
X170720000Y-80680000D02*
X170840000Y-81160000D01*
X170640000Y-80370000D02*
X170720000Y-80680000D01*
X170540000Y-80140000D02*
X170640000Y-80370000D01*
X170300000Y-79760000D02*
X170540000Y-80140000D01*
X170040000Y-79360000D02*
X170300000Y-79760000D01*
X169760000Y-79080000D02*
X170040000Y-79360000D01*
X169430000Y-78740000D02*
X169760000Y-79080000D01*
X169070000Y-78500000D02*
X169430000Y-78740000D01*
X168680000Y-78240000D02*
X169070000Y-78500000D01*
X168290000Y-78070000D02*
X168680000Y-78240000D01*
X167860000Y-77900000D02*
X168290000Y-78070000D01*
X167450000Y-77820000D02*
X167860000Y-77900000D01*
X167020000Y-77740000D02*
X167450000Y-77820000D01*
X166400000Y-77740000D02*
X167020000Y-77740000D01*
X165940000Y-77840000D02*
X166400000Y-77740000D01*
X165430000Y-77940000D02*
X165940000Y-77840000D01*
X165010000Y-78120000D02*
X165430000Y-77940000D01*
X164610000Y-78290000D02*
X165010000Y-78120000D01*
X164230000Y-78560000D02*
X164610000Y-78290000D01*
X163870000Y-78820000D02*
X164230000Y-78560000D01*
X163620000Y-79110000D02*
X163870000Y-78820000D01*
X163300000Y-79490000D02*
X163620000Y-79110000D01*
X163130000Y-79800000D02*
X163300000Y-79490000D01*
X162880000Y-80280000D02*
X163130000Y-79800000D01*
X162830000Y-80440000D02*
X162880000Y-80280000D01*
X162680000Y-80920000D02*
X162830000Y-80440000D01*
X162550000Y-81510000D02*
X162680000Y-80920000D01*
X162440000Y-81930000D02*
X162550000Y-81510000D01*
X162340000Y-81990000D02*
X162440000Y-81930000D01*
X162200000Y-81920000D02*
X162340000Y-81990000D01*
X161940000Y-81810000D02*
X162200000Y-81920000D01*
X161500000Y-81630000D02*
X161940000Y-81810000D01*
X161150000Y-81490000D02*
X161500000Y-81630000D01*
X160640000Y-81310000D02*
X161150000Y-81490000D01*
X160090000Y-81130000D02*
X160640000Y-81310000D01*
X159610000Y-80980000D02*
X160090000Y-81130000D01*
X159010000Y-80800000D02*
X159610000Y-80980000D01*
X158530000Y-80670000D02*
X159010000Y-80800000D01*
X157950000Y-80530000D02*
X158530000Y-80670000D01*
X157040000Y-80310000D02*
X157950000Y-80530000D01*
X156580000Y-80190000D02*
X157040000Y-80310000D01*
X156460000Y-80080000D02*
X156580000Y-80190000D01*
X156340000Y-79890000D02*
X156460000Y-80080000D01*
X156250000Y-79700000D02*
X156340000Y-79890000D01*
X156080000Y-79410000D02*
X156250000Y-79700000D01*
X155900000Y-79070000D02*
X156080000Y-79410000D01*
X155620000Y-78750000D02*
X155900000Y-79070000D01*
X155390000Y-78480000D02*
X155620000Y-78750000D01*
X155040000Y-78230000D02*
X155390000Y-78480000D01*
X154690000Y-78020000D02*
X155040000Y-78230000D01*
X154320000Y-77870000D02*
X154690000Y-78020000D01*
X153920000Y-77740000D02*
X154320000Y-77870000D01*
X153360000Y-77620000D02*
X153920000Y-77740000D01*
X153130000Y-77620000D02*
X153360000Y-77620000D01*
X153050000Y-77680000D02*
X153130000Y-77620000D01*
X153090000Y-77860000D02*
X153050000Y-77680000D01*
X153270000Y-78130000D02*
X153090000Y-77860000D01*
X153460000Y-78470000D02*
X153270000Y-78130000D01*
X153590000Y-78890000D02*
X153460000Y-78470000D01*
X153610000Y-79400000D02*
X153590000Y-78890000D01*
X153530000Y-79810000D02*
X153610000Y-79400000D01*
X153340000Y-80090000D02*
X153530000Y-79810000D01*
X153030000Y-80230000D02*
X153340000Y-80090000D01*
X152480000Y-80280000D02*
X153030000Y-80230000D01*
X151990000Y-80360000D02*
X152480000Y-80280000D01*
X151430000Y-80470000D02*
X151990000Y-80360000D01*
X150850000Y-80590000D02*
X151430000Y-80470000D01*
X150290000Y-80720000D02*
X150850000Y-80590000D01*
X149720000Y-80850000D02*
X150290000Y-80720000D01*
X149020000Y-81040000D02*
X149720000Y-80850000D01*
X148430000Y-81220000D02*
X149020000Y-81040000D01*
X148040000Y-81350000D02*
X148430000Y-81220000D01*
X147340000Y-81640000D02*
X148040000Y-81350000D01*
X146810000Y-81870000D02*
X147340000Y-81640000D01*
X146250000Y-82110000D02*
X146810000Y-81870000D01*
X145830000Y-82320000D02*
X146250000Y-82110000D01*
X145350000Y-82540000D02*
X145830000Y-82320000D01*
X145220000Y-82540000D02*
X145350000Y-82540000D01*
X145170000Y-82260000D02*
X145220000Y-82540000D01*
X145130000Y-81790000D02*
X145170000Y-82260000D01*
X144990000Y-81380000D02*
X145130000Y-81790000D01*
X144860000Y-81020000D02*
X144990000Y-81380000D01*
X144660000Y-80580000D02*
X144860000Y-81020000D01*
X144370000Y-80090000D02*
X144660000Y-80580000D01*
X144060000Y-79750000D02*
X144370000Y-80090000D01*
X143760000Y-79400000D02*
X144060000Y-79750000D01*
X143340000Y-79100000D02*
X143760000Y-79400000D01*
X142900000Y-78820000D02*
X143340000Y-79100000D01*
X142390000Y-78590000D02*
X142900000Y-78820000D01*
X141840000Y-78450000D02*
X142390000Y-78590000D01*
X141320000Y-78360000D02*
X141840000Y-78450000D01*
X140840000Y-78360000D02*
X141320000Y-78360000D01*
X140260000Y-78420000D02*
X140840000Y-78360000D01*
X139790000Y-78540000D02*
X140260000Y-78420000D01*
X139230000Y-78780000D02*
X139790000Y-78540000D01*
X138800000Y-79000000D02*
X139230000Y-78780000D01*
X138350000Y-79310000D02*
X138800000Y-79000000D01*
X137950000Y-79650000D02*
X138350000Y-79310000D01*
X137590000Y-80070000D02*
X137950000Y-79650000D01*
X137300000Y-80610000D02*
X137590000Y-80070000D01*
X137130000Y-81040000D02*
X137300000Y-80610000D01*
X136980000Y-81540000D02*
X137130000Y-81040000D01*
X136840000Y-82120000D02*
X136980000Y-81540000D01*
X136820000Y-82490000D02*
X136840000Y-82120000D01*
X136860000Y-82870000D02*
X136820000Y-82490000D01*
X136920000Y-83170000D02*
X136860000Y-82870000D01*
X137030000Y-83580000D02*
X136920000Y-83170000D01*
X137150000Y-84010000D02*
X137030000Y-83580000D01*
X137320000Y-84360000D02*
X137150000Y-84010000D01*
X137570000Y-84840000D02*
X137320000Y-84360000D01*
X137810000Y-85130000D02*
X137570000Y-84840000D01*
X138100000Y-85500000D02*
X137810000Y-85130000D01*
X138540000Y-85850000D02*
X138100000Y-85500000D01*
X138980000Y-86140000D02*
X138540000Y-85850000D01*
X139530000Y-86420000D02*
X138980000Y-86140000D01*
X139820000Y-86630000D02*
X139530000Y-86420000D01*
X139750000Y-86890000D02*
X139820000Y-86630000D01*
X139410000Y-87800000D02*
X139750000Y-86890000D01*
X139170000Y-88440000D02*
X139410000Y-87800000D01*
X138890000Y-89150000D02*
X139170000Y-88440000D01*
X138650000Y-89770000D02*
X138890000Y-89150000D01*
X138470000Y-90230000D02*
X138650000Y-89770000D01*
X138320000Y-90610000D02*
X138470000Y-90230000D01*
X138110000Y-91200000D02*
X138320000Y-90610000D01*
X137930000Y-91670000D02*
X138110000Y-91200000D01*
X137720000Y-92240000D02*
X137930000Y-91670000D01*
X137500000Y-92860000D02*
X137720000Y-92240000D01*
X137270000Y-93520000D02*
X137500000Y-92860000D01*
X137110000Y-93990000D02*
X137270000Y-93520000D01*
X136900000Y-94590000D02*
X137110000Y-93990000D01*
X136680000Y-95210000D02*
X136900000Y-94590000D01*
X136570000Y-95510000D02*
X136680000Y-95210000D01*
X136440000Y-95860000D02*
X136570000Y-95510000D01*
X136200000Y-96510000D02*
X136440000Y-95860000D01*
X136050000Y-96940000D02*
X136200000Y-96510000D01*
X135930000Y-97260000D02*
X136050000Y-96940000D01*
X135820000Y-97610000D02*
X135930000Y-97260000D01*
X135690000Y-97960000D02*
X135820000Y-97610000D01*
X135590000Y-98340000D02*
X135690000Y-97960000D01*
X135440000Y-98880000D02*
X135590000Y-98340000D01*
X135300000Y-99410000D02*
X135440000Y-98880000D01*
X135260000Y-99610000D02*
X135300000Y-99410000D01*
X135180000Y-100060000D02*
X135260000Y-99610000D01*
X135070000Y-100620000D02*
X135180000Y-100060000D01*
X135010000Y-100990000D02*
X135070000Y-100620000D01*
X134980000Y-101340000D02*
X135010000Y-100990000D01*
X134950000Y-101740000D02*
X134980000Y-101340000D01*
X134910000Y-102140000D02*
X134950000Y-101740000D01*
X134890000Y-102490000D02*
X134910000Y-102140000D01*
X134890000Y-102610000D02*
X134890000Y-102490000D01*
X134900000Y-103110000D02*
X134890000Y-102610000D01*
X134910000Y-103600000D02*
X134900000Y-103110000D01*
X134920000Y-104020000D02*
X134910000Y-103600000D01*
X134980000Y-104590000D02*
X134920000Y-104020000D01*
X135030000Y-105140000D02*
X134980000Y-104590000D01*
X135100000Y-105680000D02*
X135030000Y-105140000D01*
X135190000Y-106180000D02*
X135100000Y-105680000D01*
X135290000Y-106740000D02*
X135190000Y-106180000D01*
X135390000Y-107230000D02*
X135290000Y-106740000D01*
X135490000Y-107620000D02*
X135390000Y-107230000D01*
X135570000Y-107970000D02*
X135490000Y-107620000D01*
X135660000Y-108340000D02*
X135570000Y-107970000D01*
X135790000Y-108770000D02*
X135660000Y-108340000D01*
X135950000Y-109300000D02*
X135790000Y-108770000D01*
X136110000Y-110130000D02*
X135950000Y-109300000D01*
X136040000Y-110680000D02*
X136110000Y-110130000D01*
X136030000Y-111050000D02*
X136040000Y-110680000D01*
X136030000Y-111310000D02*
X136030000Y-111050000D01*
X136040000Y-111440000D02*
X136030000Y-111310000D01*
X136060000Y-111700000D02*
X136040000Y-111440000D01*
X136090000Y-112000000D02*
X136060000Y-111700000D01*
X136120000Y-112310000D02*
X136090000Y-112000000D01*
X136260000Y-112770000D02*
X136120000Y-112310000D01*
X136350000Y-113070000D02*
X136260000Y-112770000D01*
X136390000Y-113180000D02*
X136350000Y-113070000D01*
X136550000Y-113490000D02*
X136390000Y-113180000D01*
X136810000Y-113980000D02*
X136550000Y-113490000D01*
X136950000Y-114160000D02*
X136810000Y-113980000D01*
X137190000Y-114480000D02*
X136950000Y-114160000D01*
X137370000Y-114660000D02*
X137190000Y-114480000D01*
X137640000Y-114950000D02*
X137370000Y-114660000D01*
X137810000Y-115090000D02*
X137640000Y-114950000D01*
X138150000Y-115380000D02*
X137810000Y-115090000D01*
X138220000Y-115420000D02*
X138150000Y-115380000D01*
X138580000Y-115650000D02*
X138220000Y-115420000D01*
X138720000Y-115710000D02*
X138580000Y-115650000D01*
X139080000Y-115850000D02*
X138720000Y-115710000D01*
X139290000Y-115930000D02*
X139080000Y-115850000D01*
X139550000Y-116000000D02*
X139290000Y-115930000D01*
X139820000Y-116070000D02*
X139550000Y-116000000D01*
X140060000Y-116130000D02*
X139820000Y-116070000D01*
X140340000Y-116170000D02*
X140060000Y-116130000D01*
X140580000Y-116200000D02*
X140340000Y-116170000D01*
X140830000Y-116230000D02*
X140580000Y-116200000D01*
X141230000Y-116230000D02*
X140830000Y-116230000D01*
X141550000Y-116220000D02*
X141230000Y-116230000D01*
X141740000Y-116190000D02*
X141550000Y-116220000D01*
X142120000Y-116100000D02*
X141740000Y-116190000D01*
X142630000Y-115940000D02*
X142120000Y-116100000D01*
X142810000Y-115870000D02*
X142630000Y-115940000D01*
X143120000Y-115750000D02*
X142810000Y-115870000D01*
X143440000Y-115600000D02*
X143120000Y-115750000D01*
X143600000Y-115490000D02*
X143440000Y-115600000D01*
X143660000Y-115440000D02*
X143600000Y-115490000D01*
X144060000Y-115080000D02*
X143660000Y-115440000D01*
X144330000Y-115290000D02*
X144060000Y-115080000D01*
X144630000Y-115490000D02*
X144330000Y-115290000D01*
X145300000Y-115920000D02*
X144630000Y-115490000D01*
X145720000Y-116180000D02*
X145300000Y-115920000D01*
X146120000Y-116390000D02*
X145720000Y-116180000D01*
X146480000Y-116580000D02*
X146120000Y-116390000D01*
X146740000Y-116720000D02*
X146480000Y-116580000D01*
X147040000Y-116840000D02*
X146740000Y-116720000D01*
X147520000Y-117040000D02*
X147040000Y-116840000D01*
X147950000Y-117220000D02*
X147520000Y-117040000D01*
X148360000Y-117340000D02*
X147950000Y-117220000D01*
X148900000Y-117510000D02*
X148360000Y-117340000D01*
X149240000Y-117610000D02*
X148900000Y-117510000D01*
X149600000Y-117690000D02*
X149240000Y-117610000D01*
X149920000Y-117770000D02*
X149600000Y-117690000D01*
X150200000Y-117820000D02*
X149920000Y-117770000D01*
X150530000Y-117880000D02*
X150200000Y-117820000D01*
X150830000Y-117930000D02*
X150530000Y-117880000D01*
X151360000Y-118000000D02*
X150830000Y-117930000D01*
X151900000Y-118060000D02*
X151360000Y-118000000D01*
X152390000Y-118110000D02*
X151900000Y-118060000D01*
X152960000Y-118160000D02*
X152390000Y-118110000D01*
X153340000Y-118190000D02*
X152960000Y-118160000D01*
X153740000Y-118190000D02*
X153340000Y-118190000D01*
X154150000Y-118160000D02*
X153740000Y-118190000D01*
X154550000Y-118130000D02*
X154150000Y-118160000D01*
X154950000Y-118100000D02*
X154550000Y-118130000D01*
X155210000Y-118060000D02*
X154950000Y-118100000D01*
X155740000Y-117990000D02*
X155210000Y-118060000D01*
X156270000Y-117920000D02*
X155740000Y-117990000D01*
X156770000Y-117850000D02*
X156270000Y-117920000D01*
X157480000Y-117670000D02*
X156770000Y-117850000D01*
X157970000Y-117540000D02*
X157480000Y-117670000D01*
X158530000Y-117400000D02*
X157970000Y-117540000D01*
X159220000Y-117130000D02*
X158530000Y-117400000D01*
X159710000Y-116940000D02*
X159220000Y-117130000D01*
X160200000Y-116750000D02*
X159710000Y-116940000D01*
X160800000Y-116440000D02*
X160200000Y-116750000D01*
X161310000Y-116170000D02*
X160800000Y-116440000D01*
X161780000Y-115930000D02*
X161310000Y-116170000D01*
X162380000Y-115510000D02*
X161780000Y-115930000D01*
X162840000Y-115190000D02*
X162380000Y-115510000D01*
X163270000Y-114900000D02*
X162840000Y-115190000D01*
X163500000Y-114700000D02*
X163270000Y-114900000D01*
X163700000Y-114530000D02*
X163500000Y-114700000D01*
X164030000Y-114980000D02*
X163700000Y-114530000D01*
X164200000Y-115130000D02*
X164030000Y-114980000D01*
X164540000Y-115280000D02*
X164200000Y-115130000D01*
X164940000Y-115430000D02*
X164540000Y-115280000D01*
X165300000Y-115530000D02*
X164940000Y-115430000D01*
X165690000Y-115640000D02*
X165300000Y-115530000D01*
X166170000Y-115690000D02*
X165690000Y-115640000D01*
X166500000Y-115750000D02*
X166170000Y-115690000D01*
X166960000Y-115740000D02*
X166500000Y-115750000D01*
X167290000Y-115730000D02*
X166960000Y-115740000D01*
X167840000Y-115640000D02*
X167290000Y-115730000D01*
X168810000Y-115300000D02*
X167840000Y-115640000D01*
X169020000Y-115180000D02*
X168810000Y-115300000D01*
X169550000Y-114880000D02*
X169020000Y-115180000D01*
X169830000Y-114660000D02*
X169550000Y-114880000D01*
X170430000Y-114100000D02*
X169830000Y-114660000D01*
X170720000Y-113690000D02*
X170430000Y-114100000D01*
X171000000Y-113300000D02*
X170720000Y-113690000D01*
X171100000Y-113090000D02*
X171000000Y-113300000D01*
X171400000Y-112420000D02*
X171100000Y-113090000D01*
X171460000Y-112170000D02*
X171400000Y-112420000D01*
X171560000Y-111740000D02*
X171460000Y-112170000D01*
X171620000Y-111470000D02*
X171560000Y-111740000D01*
X171650000Y-111180000D02*
X171620000Y-111470000D01*
X171680000Y-110740000D02*
X171650000Y-111180000D01*
X171680000Y-110330000D02*
X171680000Y-110740000D01*
X171640000Y-109870000D02*
X171680000Y-110330000D01*
X171600000Y-109540000D02*
X171640000Y-109870000D01*
X171510000Y-109240000D02*
X171600000Y-109540000D01*
X171720000Y-108690000D02*
X171510000Y-109240000D01*
X171900000Y-108150000D02*
X171720000Y-108690000D01*
X172010000Y-107790000D02*
X171900000Y-108150000D01*
X172150000Y-107300000D02*
X172010000Y-107790000D01*
X172260000Y-106860000D02*
X172150000Y-107300000D01*
X172390000Y-106360000D02*
X172260000Y-106860000D01*
X172430000Y-106170000D02*
X172390000Y-106360000D01*
X172540000Y-105590000D02*
X172430000Y-106170000D01*
X172630000Y-105020000D02*
X172540000Y-105590000D01*
X172700000Y-104620000D02*
X172630000Y-105020000D01*
X172710000Y-104410000D02*
X172700000Y-104620000D01*
X172750000Y-103940000D02*
X172710000Y-104410000D01*
X172790000Y-103380000D02*
X172750000Y-103940000D01*
X172820000Y-102790000D02*
X172790000Y-103380000D01*
X172800000Y-102350000D02*
X172820000Y-102790000D01*
X172790000Y-101800000D02*
X172800000Y-102350000D01*
X172770000Y-101260000D02*
X172790000Y-101800000D01*
X172710000Y-100830000D02*
X172770000Y-101260000D01*
X172650000Y-100340000D02*
X172710000Y-100830000D01*
X172590000Y-99960000D02*
X172650000Y-100340000D01*
X172530000Y-99530000D02*
X172590000Y-99960000D01*
X172460000Y-99140000D02*
X172530000Y-99530000D01*
X172370000Y-98700000D02*
X172460000Y-99140000D01*
X172320000Y-98230000D02*
X172370000Y-98700000D01*
X172300000Y-97770000D02*
X172320000Y-98230000D01*
X172810000Y-97830000D02*
X172300000Y-97770000D01*
X173300000Y-97870000D02*
X172810000Y-97830000D01*
X173870000Y-97920000D02*
X173300000Y-97870000D01*
X174490000Y-97970000D02*
X173870000Y-97920000D01*
X175090000Y-98020000D02*
X174490000Y-97970000D01*
X175690000Y-98060000D02*
X175090000Y-98020000D01*
X176270000Y-98090000D02*
X175690000Y-98060000D01*
X176540000Y-97970000D02*
X176270000Y-98090000D01*
X176540000Y-97760000D02*
X176540000Y-97970000D01*
X176470000Y-97490000D02*
X176540000Y-97760000D01*
X176330000Y-97370000D02*
X176470000Y-97490000D01*
X176260000Y-97360000D02*
X176330000Y-97370000D01*
X175970000Y-97330000D02*
X176260000Y-97360000D01*
X175500000Y-97290000D02*
X175970000Y-97330000D01*
X174990000Y-97260000D02*
X175500000Y-97290000D01*
X174300000Y-97210000D02*
X174990000Y-97260000D01*
X173760000Y-97170000D02*
X174300000Y-97210000D01*
X173230000Y-97140000D02*
X173760000Y-97170000D01*
X172590000Y-97110000D02*
X173230000Y-97140000D01*
X172010000Y-97080000D02*
X172590000Y-97110000D01*
X171870000Y-97070000D02*
X172010000Y-97080000D01*
X171960000Y-96390000D02*
X171870000Y-97070000D01*
X172550000Y-96370000D02*
X171960000Y-96390000D01*
X173140000Y-96360000D02*
X172550000Y-96370000D01*
X173660000Y-96340000D02*
X173140000Y-96360000D01*
X174150000Y-96330000D02*
X173660000Y-96340000D01*
X174800000Y-96320000D02*
X174150000Y-96330000D01*
X176190000Y-96240000D02*
X174800000Y-96320000D01*
X176340000Y-96050000D02*
X176190000Y-96240000D01*
X176310000Y-95820000D02*
X176340000Y-96050000D01*
X176140000Y-95680000D02*
X176310000Y-95820000D01*
X176060000Y-95660000D02*
X176140000Y-95680000D01*
X175090000Y-95690000D02*
X176060000Y-95660000D01*
X173800000Y-95780000D02*
X175090000Y-95690000D01*
X172470000Y-95850000D02*
X173800000Y-95780000D01*
X171470000Y-95900000D02*
X172470000Y-95850000D01*
X171410000Y-95580000D02*
X171470000Y-95900000D01*
M02*
